G04 #@! TF.GenerationSoftware,KiCad,Pcbnew,(5.1.5)-3*
G04 #@! TF.CreationDate,2020-02-09T18:38:47-08:00*
G04 #@! TF.ProjectId,minato,6d696e61-746f-42e6-9b69-6361645f7063,rev?*
G04 #@! TF.SameCoordinates,Original*
G04 #@! TF.FileFunction,Copper,L1,Top*
G04 #@! TF.FilePolarity,Positive*
%FSLAX46Y46*%
G04 Gerber Fmt 4.6, Leading zero omitted, Abs format (unit mm)*
G04 Created by KiCad (PCBNEW (5.1.5)-3) date 2020-02-09 18:38:47*
%MOMM*%
%LPD*%
G04 APERTURE LIST*
%ADD10C,2.800000*%
%ADD11C,0.800000*%
%ADD12C,0.177800*%
G04 APERTURE END LIST*
D10*
X36512500Y-3968750D03*
X431800000Y-3968750D03*
X431800000Y-143668750D03*
X36512500Y-143668750D03*
D11*
X96440625Y-30956250D03*
X134540625Y-30956250D03*
X172640625Y-30956250D03*
X210740625Y-30956250D03*
X248840625Y-30956250D03*
X286940625Y-30956250D03*
X325040625Y-30956250D03*
X363140625Y-30956250D03*
X401240625Y-30956250D03*
X62309375Y-36115625D03*
X91678125Y-36115625D03*
X58340625Y-50800000D03*
X96440625Y-50800000D03*
X134540625Y-50800000D03*
X172640625Y-50800000D03*
X210740625Y-50800000D03*
X248840625Y-50800000D03*
X286940625Y-50800000D03*
X325040625Y-50800000D03*
X363140625Y-50800000D03*
X420290625Y-50800000D03*
X48418750Y-38893750D03*
X58340625Y-69850000D03*
X96440625Y-69850000D03*
X139303125Y-69850000D03*
X182165625Y-69850000D03*
X220265625Y-69850000D03*
X258365625Y-69850000D03*
X296465625Y-69850000D03*
X334565625Y-69850000D03*
X372665625Y-69850000D03*
X420290625Y-69850000D03*
X58340625Y-88900000D03*
X96440625Y-88900000D03*
X167878125Y-88900000D03*
X205978125Y-88900000D03*
X244078125Y-88900000D03*
X282178125Y-88900000D03*
X320278125Y-88900000D03*
X358378125Y-88900000D03*
X420290625Y-88900000D03*
X58340625Y-107950000D03*
X96440625Y-107950000D03*
X146446875Y-107950000D03*
X196453125Y-107950000D03*
X234553125Y-107950000D03*
X272653125Y-107950000D03*
X310753125Y-107950000D03*
X348853125Y-107950000D03*
X401240625Y-107950000D03*
X67865625Y-127000000D03*
X136921875Y-127000000D03*
X184546875Y-127000000D03*
X320278125Y-127000000D03*
X360759375Y-127000000D03*
X401240625Y-127000000D03*
X77390625Y-31750000D03*
X115490625Y-31750000D03*
X153590625Y-31750000D03*
X191690625Y-31750000D03*
X229790625Y-31750000D03*
X267890625Y-31750000D03*
X305990625Y-31750000D03*
X382190625Y-31750000D03*
X420290625Y-31750000D03*
X62309375Y-43259375D03*
X62309375Y-37306250D03*
X344090625Y-31750000D03*
X77390625Y-49609375D03*
X115490625Y-49609375D03*
X153590625Y-49609375D03*
X191690625Y-49609375D03*
X229790625Y-49609375D03*
X267890625Y-49609375D03*
X305990625Y-49609375D03*
X344090625Y-49609375D03*
X391715625Y-49609375D03*
X77390625Y-68659375D03*
X115490625Y-68659375D03*
X163115625Y-68659375D03*
X201215625Y-68659375D03*
X239315625Y-68659375D03*
X277415625Y-68659375D03*
X315515625Y-68659375D03*
X353615625Y-68659375D03*
X396478125Y-68659375D03*
X77390625Y-87709375D03*
X141684375Y-87709375D03*
X186928125Y-87709375D03*
X225028125Y-87709375D03*
X263128125Y-87709375D03*
X301228125Y-87709375D03*
X339328125Y-87709375D03*
X389334375Y-87709375D03*
X77390625Y-106759375D03*
X115490625Y-106759375D03*
X177403125Y-106759375D03*
X215503125Y-106759375D03*
X253603125Y-106759375D03*
X291703125Y-106759375D03*
X329803125Y-106759375D03*
X375046875Y-106759375D03*
X420290625Y-106759375D03*
X65881250Y-110331250D03*
X58340625Y-110331250D03*
X96440625Y-125809375D03*
X160734375Y-125809375D03*
X263128125Y-125809375D03*
X339328125Y-125809375D03*
X382190625Y-125809375D03*
X420290625Y-125809375D03*
X76200000Y-15478125D03*
X63896875Y-15478125D03*
X95250000Y-16271875D03*
X65087500Y-16271875D03*
X133746875Y-16668750D03*
X66278125Y-17065625D03*
X69056250Y-34131250D03*
X230981250Y-34131250D03*
X68262500Y-34925000D03*
X269081250Y-34925000D03*
X67071875Y-35448925D03*
X307181250Y-35718750D03*
X312340625Y-53578125D03*
X82550000Y-51990625D03*
X80962500Y-32940625D03*
X63500000Y-30956250D03*
X353218750Y-54768750D03*
X61515625Y-51593750D03*
X61515625Y-44450000D03*
X60721875Y-35718750D03*
X58340625Y-36512500D03*
X395287500Y-55562500D03*
D12*
X96440625Y-30956250D02*
X134540625Y-30956250D01*
X134540625Y-30956250D02*
X172640625Y-30956250D01*
X172640625Y-30956250D02*
X210740625Y-30956250D01*
X210740625Y-30956250D02*
X248840625Y-30956250D01*
X248840625Y-30956250D02*
X286940625Y-30956250D01*
X286940625Y-30956250D02*
X325040625Y-30956250D01*
X325040625Y-30956250D02*
X363140625Y-30956250D01*
X363140625Y-30956250D02*
X401240625Y-30956250D01*
X62309375Y-36115625D02*
X91678125Y-36115625D01*
X58340625Y-50800000D02*
X96440625Y-50800000D01*
X96440625Y-50800000D02*
X134540625Y-50800000D01*
X134540625Y-50800000D02*
X172640625Y-50800000D01*
X172640625Y-50800000D02*
X210740625Y-50800000D01*
X210740625Y-50800000D02*
X248840625Y-50800000D01*
X248840625Y-50800000D02*
X286940625Y-50800000D01*
X286940625Y-50800000D02*
X325040625Y-50800000D01*
X325040625Y-50800000D02*
X363140625Y-50800000D01*
X363140625Y-50800000D02*
X420290625Y-50800000D01*
X58340625Y-50800000D02*
X58340625Y-50006250D01*
X58340625Y-50006250D02*
X56753125Y-48418750D01*
X56753125Y-48418750D02*
X55959375Y-47625000D01*
X55959375Y-47625000D02*
X55959375Y-44053125D01*
X55959375Y-44053125D02*
X50800000Y-38893750D01*
X50800000Y-38893750D02*
X48418750Y-38893750D01*
X58340625Y-69850000D02*
X96440625Y-69850000D01*
X96440625Y-69850000D02*
X139303125Y-69850000D01*
X139303125Y-69850000D02*
X182165625Y-69850000D01*
X182165625Y-69850000D02*
X220265625Y-69850000D01*
X220265625Y-69850000D02*
X258365625Y-69850000D01*
X258365625Y-69850000D02*
X296465625Y-69850000D01*
X296465625Y-69850000D02*
X334565625Y-69850000D01*
X334565625Y-69850000D02*
X372665625Y-69850000D01*
X372665625Y-69850000D02*
X420290625Y-69850000D01*
X58340625Y-88900000D02*
X96440625Y-88900000D01*
X96440625Y-88900000D02*
X167878125Y-88900000D01*
X167878125Y-88900000D02*
X205978125Y-88900000D01*
X205978125Y-88900000D02*
X244078125Y-88900000D01*
X244078125Y-88900000D02*
X278229406Y-88900000D01*
X278229406Y-88900000D02*
X282178125Y-88900000D01*
X282178125Y-88900000D02*
X320278125Y-88900000D01*
X320278125Y-88900000D02*
X358378125Y-88900000D01*
X358378125Y-88900000D02*
X420290625Y-88900000D01*
X58340625Y-107950000D02*
X96440625Y-107950000D01*
X96440625Y-107950000D02*
X146446875Y-107950000D01*
X146446875Y-107950000D02*
X196453125Y-107950000D01*
X196453125Y-107950000D02*
X234553125Y-107950000D01*
X234553125Y-107950000D02*
X272653125Y-107950000D01*
X272653125Y-107950000D02*
X310753125Y-107950000D01*
X310753125Y-107950000D02*
X348853125Y-107950000D01*
X348853125Y-107950000D02*
X401240625Y-107950000D01*
X67865625Y-127000000D02*
X136921875Y-127000000D01*
X136921875Y-127000000D02*
X184546875Y-127000000D01*
X184546875Y-127000000D02*
X320278125Y-127000000D01*
X320278125Y-127000000D02*
X360759375Y-127000000D01*
X360759375Y-127000000D02*
X401240625Y-127000000D01*
X77390625Y-31750000D02*
X115490625Y-31750000D01*
X115490625Y-31750000D02*
X153590625Y-31750000D01*
X153590625Y-31750000D02*
X191690625Y-31750000D01*
X191690625Y-31750000D02*
X229790625Y-31750000D01*
X229790625Y-31750000D02*
X267890625Y-31750000D01*
X267890625Y-31750000D02*
X305990625Y-31750000D01*
X382190625Y-31750000D02*
X420290625Y-31750000D01*
X62309375Y-43259375D02*
X62309375Y-37306250D01*
X305990625Y-31750000D02*
X344090625Y-31750000D01*
X344090625Y-31750000D02*
X382190625Y-31750000D01*
X77390625Y-49609375D02*
X115490625Y-49609375D01*
X115490625Y-49609375D02*
X153590625Y-49609375D01*
X153590625Y-49609375D02*
X191690625Y-49609375D01*
X191690625Y-49609375D02*
X229790625Y-49609375D01*
X229790625Y-49609375D02*
X267890625Y-49609375D01*
X267890625Y-49609375D02*
X305990625Y-49609375D01*
X305990625Y-49609375D02*
X344090625Y-49609375D01*
X344090625Y-49609375D02*
X391715625Y-49609375D01*
X77390625Y-68659375D02*
X115490625Y-68659375D01*
X163115625Y-68659375D02*
X115490625Y-68659375D01*
X163115625Y-68659375D02*
X201215625Y-68659375D01*
X201215625Y-68659375D02*
X239315625Y-68659375D01*
X239315625Y-68659375D02*
X277415625Y-68659375D01*
X277415625Y-68659375D02*
X315515625Y-68659375D01*
X315515625Y-68659375D02*
X353615625Y-68659375D01*
X353615625Y-68659375D02*
X396478125Y-68659375D01*
X77390625Y-87709375D02*
X141684375Y-87709375D01*
X141684375Y-87709375D02*
X186928125Y-87709375D01*
X186928125Y-87709375D02*
X225028125Y-87709375D01*
X225028125Y-87709375D02*
X263128125Y-87709375D01*
X263128125Y-87709375D02*
X301228125Y-87709375D01*
X301228125Y-87709375D02*
X339328125Y-87709375D01*
X339328125Y-87709375D02*
X389334375Y-87709375D01*
X77390625Y-106759375D02*
X115490625Y-106759375D01*
X115490625Y-106759375D02*
X177403125Y-106759375D01*
X177403125Y-106759375D02*
X215503125Y-106759375D01*
X215503125Y-106759375D02*
X253603125Y-106759375D01*
X253603125Y-106759375D02*
X291703125Y-106759375D01*
X291703125Y-106759375D02*
X329803125Y-106759375D01*
X329803125Y-106759375D02*
X375046875Y-106759375D01*
X375046875Y-106759375D02*
X420290625Y-106759375D01*
X65881250Y-110331250D02*
X58340625Y-110331250D01*
X96440625Y-125809375D02*
X160734375Y-125809375D01*
X160734375Y-125809375D02*
X263128125Y-125809375D01*
X263128125Y-125809375D02*
X339328125Y-125809375D01*
X339328125Y-125809375D02*
X382190625Y-125809375D01*
X382190625Y-125809375D02*
X420290625Y-125809375D01*
X76200000Y-15478125D02*
X63896875Y-15478125D01*
X95250000Y-16271875D02*
X65087500Y-16271875D01*
X66281249Y-17068749D02*
X66278125Y-17065625D01*
X133746875Y-16668750D02*
X133346876Y-17068749D01*
X133346876Y-17068749D02*
X66281249Y-17068749D01*
X69056250Y-34131250D02*
X230981250Y-34131250D01*
X68262500Y-34925000D02*
X269081250Y-34925000D01*
X91215331Y-35591701D02*
X91485157Y-35321875D01*
X67780336Y-35591701D02*
X91215331Y-35591701D01*
X67071875Y-35448925D02*
X67637560Y-35448925D01*
X67637560Y-35448925D02*
X67780336Y-35591701D01*
X91485157Y-35321875D02*
X93662500Y-35321875D01*
X93662500Y-35321875D02*
X94059375Y-35718750D01*
X94059375Y-35718750D02*
X307181250Y-35718750D01*
X312340625Y-53578125D02*
X84137500Y-53578125D01*
X84137500Y-53578125D02*
X82550000Y-51990625D01*
X80962500Y-32940625D02*
X65484375Y-32940625D01*
X65484375Y-32940625D02*
X63500000Y-30956250D01*
X353218750Y-54768750D02*
X82946875Y-54768750D01*
X82946875Y-54768750D02*
X64690625Y-54768750D01*
X64690625Y-54768750D02*
X61515625Y-51593750D01*
X61515625Y-44450000D02*
X61515625Y-36512500D01*
X61515625Y-36512500D02*
X60721875Y-35718750D01*
X58340625Y-36512500D02*
X57943750Y-36909375D01*
X57943750Y-36909375D02*
X57546875Y-37306250D01*
X57546875Y-37306250D02*
X57150000Y-37703125D01*
X57150000Y-37703125D02*
X45640625Y-37703125D01*
X45640625Y-37703125D02*
X42862500Y-40481250D01*
X42862500Y-40481250D02*
X42862500Y-52784375D01*
X42862500Y-52784375D02*
X44450000Y-54371875D01*
X44450000Y-54371875D02*
X45859676Y-55781551D01*
X46040624Y-55962499D02*
X45640625Y-55562500D01*
X395287500Y-55562500D02*
X394887501Y-55962499D01*
X394887501Y-55962499D02*
X46040624Y-55962499D01*
M02*
