M48
; DRILL file {KiCad (5.1.5)-3} date 2/9/2020 6:37:57 PM
; FORMAT={-:-/ absolute / inch / decimal}
; #@! TF.CreationDate,2020-02-09T18:37:57-08:00
; #@! TF.GenerationSoftware,Kicad,Pcbnew,(5.1.5)-3
; #@! TF.FileFunction,Plated,1,2,PTH
FMAT,2
INCH
T1C0.0157
T2C0.1102
%
G90
G05
T1
X1.9062Y-1.5312
X2.2969Y-1.4375
X2.2969Y-2.0
X2.2969Y-2.75
X2.2969Y-3.5
X2.2969Y-4.25
X2.2969Y-4.3438
X2.3906Y-1.4062
X2.4219Y-1.75
X2.4219Y-2.0312
X2.4531Y-1.4219
X2.4531Y-1.4688
X2.4531Y-1.7031
X2.5Y-1.2188
X2.5156Y-0.6094
X2.5625Y-0.6406
X2.5938Y-4.3438
X2.6094Y-0.6719
X2.6406Y-1.3956
X2.6719Y-5.0
X2.6875Y-1.375
X2.7188Y-1.3438
X3.0Y-0.6094
X3.0469Y-1.25
X3.0469Y-1.9531
X3.0469Y-2.7031
X3.0469Y-3.4531
X3.0469Y-4.2031
X3.1875Y-1.2969
X3.25Y-2.0469
X3.6094Y-1.4219
X3.75Y-0.6406
X3.7969Y-1.2188
X3.7969Y-2.0
X3.7969Y-2.75
X3.7969Y-3.5
X3.7969Y-4.25
X3.7969Y-4.9531
X4.5469Y-1.25
X4.5469Y-1.9531
X4.5469Y-2.7031
X4.5469Y-4.2031
X5.2656Y-0.6562
X5.2969Y-1.2188
X5.2969Y-2.0
X5.3906Y-5.0
X5.4844Y-2.75
X5.5781Y-3.4531
X5.7656Y-4.25
X6.0469Y-1.25
X6.0469Y-1.9531
X6.3281Y-4.9531
X6.4219Y-2.7031
X6.6094Y-3.5
X6.7969Y-1.2188
X6.7969Y-2.0
X6.9844Y-4.2031
X7.1719Y-2.75
X7.2656Y-5.0
X7.3594Y-3.4531
X7.5469Y-1.25
X7.5469Y-1.9531
X7.7344Y-4.25
X7.9219Y-2.7031
X8.1094Y-3.5
X8.2969Y-1.2188
X8.2969Y-2.0
X8.4844Y-4.2031
X8.6719Y-2.75
X8.8594Y-3.4531
X9.0469Y-1.25
X9.0469Y-1.9531
X9.0938Y-1.3438
X9.2344Y-4.25
X9.4219Y-2.7031
X9.6094Y-3.5
X9.7969Y-1.2188
X9.7969Y-2.0
X9.9844Y-4.2031
X10.1719Y-2.75
X10.3594Y-3.4531
X10.3594Y-4.9531
X10.5469Y-1.25
X10.5469Y-1.9531
X10.5938Y-1.375
X10.7344Y-4.25
X10.9219Y-2.7031
X11.1094Y-3.5
X11.2969Y-1.2188
X11.2969Y-2.0
X11.4844Y-4.2031
X11.6719Y-2.75
X11.8594Y-3.4531
X12.0469Y-1.25
X12.0469Y-1.9531
X12.0938Y-1.4062
X12.2344Y-4.25
X12.2969Y-2.1094
X12.4219Y-2.7031
X12.6094Y-3.5
X12.6094Y-5.0
X12.7969Y-1.2188
X12.7969Y-2.0
X12.9844Y-4.2031
X13.1719Y-2.75
X13.3594Y-3.4531
X13.3594Y-4.9531
X13.5469Y-1.25
X13.5469Y-1.9531
X13.7344Y-4.25
X13.9062Y-2.1562
X13.9219Y-2.7031
X14.1094Y-3.5
X14.2031Y-5.0
X14.2969Y-1.2188
X14.2969Y-2.0
X14.6719Y-2.75
X14.7656Y-4.2031
X15.0469Y-1.25
X15.0469Y-4.9531
X15.3281Y-3.4531
X15.4219Y-1.9531
X15.5625Y-2.1875
X15.6094Y-2.7031
X15.7969Y-1.2188
X15.7969Y-4.25
X15.7969Y-5.0
X16.5469Y-1.25
X16.5469Y-2.0
X16.5469Y-2.75
X16.5469Y-3.5
X16.5469Y-4.2031
X16.5469Y-4.9531
T2
X1.4375Y-0.1562
X17.0Y-0.1562
X1.4375Y-5.6562
X17.0Y-5.6562
T0
M30
