G04 #@! TF.GenerationSoftware,KiCad,Pcbnew,(5.1.5)-3*
G04 #@! TF.CreationDate,2020-02-09T18:38:47-08:00*
G04 #@! TF.ProjectId,minato,6d696e61-746f-42e6-9b69-6361645f7063,rev?*
G04 #@! TF.SameCoordinates,Original*
G04 #@! TF.FileFunction,Copper,L2,Bot*
G04 #@! TF.FilePolarity,Positive*
%FSLAX46Y46*%
G04 Gerber Fmt 4.6, Leading zero omitted, Abs format (unit mm)*
G04 Created by KiCad (PCBNEW (5.1.5)-3) date 2020-02-09 18:38:47*
%MOMM*%
%LPD*%
G04 APERTURE LIST*
%ADD10R,2.550000X2.500000*%
%ADD11R,2.000000X3.250000*%
%ADD12R,3.250000X2.000000*%
%ADD13R,0.900000X1.200000*%
%ADD14C,2.800000*%
%ADD15C,0.800000*%
%ADD16C,0.177800*%
%ADD17C,0.250000*%
G04 APERTURE END LIST*
D10*
X64671250Y-23653750D03*
X78521250Y-21113750D03*
D11*
X45720000Y-35321875D03*
X48260000Y-35321875D03*
X50800000Y-35321875D03*
X53340000Y-35321875D03*
X55880000Y-35321875D03*
D12*
X41402000Y-5476875D03*
X41402000Y-8016875D03*
X41402000Y-10556875D03*
X41402000Y-13096875D03*
X41402000Y-15636875D03*
X41402000Y-18176875D03*
X41402000Y-20716875D03*
X41402000Y-23256875D03*
X41402000Y-25796875D03*
X41402000Y-28336875D03*
X41402000Y-30876875D03*
X41402000Y-33416875D03*
X60198000Y-33416875D03*
X60198000Y-30876875D03*
X60198000Y-28336875D03*
X60198000Y-25796875D03*
X60198000Y-23256875D03*
X60198000Y-20716875D03*
X60198000Y-18176875D03*
X60198000Y-15636875D03*
X60198000Y-13096875D03*
X60198000Y-10556875D03*
X60198000Y-8016875D03*
X60198000Y-5476875D03*
D13*
X70581250Y-31750000D03*
X73881250Y-31750000D03*
D10*
X83721250Y-23653750D03*
X97571250Y-21113750D03*
D13*
X89631250Y-31750000D03*
X92931250Y-31750000D03*
D10*
X102771250Y-23653750D03*
X116621250Y-21113750D03*
D13*
X108681250Y-31750000D03*
X111981250Y-31750000D03*
D10*
X407571250Y-23653750D03*
X421421250Y-21113750D03*
D13*
X61056250Y-127000000D03*
X64356250Y-127000000D03*
X322993750Y-107950000D03*
X326293750Y-107950000D03*
X70581250Y-107950000D03*
X73881250Y-107950000D03*
D14*
X36512500Y-3968750D03*
X431800000Y-3968750D03*
X431800000Y-143668750D03*
X36512500Y-143668750D03*
D10*
X407571250Y-118903750D03*
X421421250Y-116363750D03*
X388521250Y-118903750D03*
X402371250Y-116363750D03*
X407571250Y-99853750D03*
X421421250Y-97313750D03*
X388521250Y-99853750D03*
X402371250Y-97313750D03*
X407571250Y-80803750D03*
X421421250Y-78263750D03*
X383758750Y-61753750D03*
X397608750Y-59213750D03*
X407571250Y-61753750D03*
X421421250Y-59213750D03*
X407571250Y-42703750D03*
X421421250Y-40163750D03*
X388521250Y-23653750D03*
X402371250Y-21113750D03*
X369471250Y-118903750D03*
X383321250Y-116363750D03*
X348040000Y-118903750D03*
X361890000Y-116363750D03*
X362327500Y-99853750D03*
X376177500Y-97313750D03*
X376615000Y-80803750D03*
X390465000Y-78263750D03*
X345658750Y-80803750D03*
X359508750Y-78263750D03*
X340896250Y-61753750D03*
X354746250Y-59213750D03*
X359946250Y-61753750D03*
X373796250Y-59213750D03*
X378996250Y-42703750D03*
X392846250Y-40163750D03*
X350421250Y-42703750D03*
X364271250Y-40163750D03*
X369471250Y-23653750D03*
X383321250Y-21113750D03*
X350421250Y-23653750D03*
X364271250Y-21113750D03*
X326608750Y-118903750D03*
X340458750Y-116363750D03*
X307558750Y-118903750D03*
X321408750Y-116363750D03*
X317083750Y-99853750D03*
X330933750Y-97313750D03*
X336133750Y-99853750D03*
X349983750Y-97313750D03*
X326608750Y-80803750D03*
X340458750Y-78263750D03*
X307558750Y-80803750D03*
X321408750Y-78263750D03*
X302796250Y-61753750D03*
X316646250Y-59213750D03*
X321846250Y-61753750D03*
X335696250Y-59213750D03*
X331371250Y-42703750D03*
X345221250Y-40163750D03*
X312321250Y-42703750D03*
X326171250Y-40163750D03*
X331371250Y-23653750D03*
X345221250Y-21113750D03*
X312321250Y-23653750D03*
X326171250Y-21113750D03*
X278983750Y-99853750D03*
X292833750Y-97313750D03*
X298033750Y-99853750D03*
X311883750Y-97313750D03*
X288508750Y-80803750D03*
X302358750Y-78263750D03*
X269458750Y-80803750D03*
X283308750Y-78263750D03*
X264696250Y-61753750D03*
X278546250Y-59213750D03*
X283746250Y-61753750D03*
X297596250Y-59213750D03*
X293271250Y-42703750D03*
X307121250Y-40163750D03*
X274221250Y-42703750D03*
X288071250Y-40163750D03*
X293271250Y-23653750D03*
X307121250Y-21113750D03*
X274221250Y-23653750D03*
X288071250Y-21113750D03*
X240883750Y-99853750D03*
X254733750Y-97313750D03*
X259933750Y-99853750D03*
X273783750Y-97313750D03*
X250408750Y-80803750D03*
X264258750Y-78263750D03*
X231358750Y-80803750D03*
X245208750Y-78263750D03*
X226596250Y-61753750D03*
X240446250Y-59213750D03*
X245646250Y-61753750D03*
X259496250Y-59213750D03*
X255171250Y-42703750D03*
X269021250Y-40163750D03*
X236121250Y-42703750D03*
X249971250Y-40163750D03*
X255171250Y-23653750D03*
X269021250Y-21113750D03*
X236121250Y-23653750D03*
X249971250Y-21113750D03*
X202783750Y-99853750D03*
X216633750Y-97313750D03*
X221833750Y-99853750D03*
X235683750Y-97313750D03*
X212308750Y-80803750D03*
X226158750Y-78263750D03*
X193258750Y-80803750D03*
X207108750Y-78263750D03*
X188496250Y-61753750D03*
X202346250Y-59213750D03*
X207546250Y-61753750D03*
X221396250Y-59213750D03*
X217071250Y-42703750D03*
X230921250Y-40163750D03*
X198021250Y-42703750D03*
X211871250Y-40163750D03*
X217071250Y-23653750D03*
X230921250Y-21113750D03*
X198021250Y-23653750D03*
X211871250Y-21113750D03*
X250408750Y-118903750D03*
X264258750Y-116363750D03*
X171827500Y-118903750D03*
X185677500Y-116363750D03*
X164683750Y-99853750D03*
X178533750Y-97313750D03*
X183733750Y-99853750D03*
X197583750Y-97313750D03*
X174208750Y-80803750D03*
X188058750Y-78263750D03*
X155158750Y-80803750D03*
X169008750Y-78263750D03*
X150396250Y-61753750D03*
X164246250Y-59213750D03*
X169446250Y-61753750D03*
X183296250Y-59213750D03*
X178971250Y-42703750D03*
X192821250Y-40163750D03*
X159921250Y-42703750D03*
X173771250Y-40163750D03*
X178971250Y-23653750D03*
X192821250Y-21113750D03*
X159921250Y-23653750D03*
X173771250Y-21113750D03*
X148015000Y-118903750D03*
X161865000Y-116363750D03*
X124202500Y-118903750D03*
X138052500Y-116363750D03*
X133727500Y-99853750D03*
X147577500Y-97313750D03*
X128965000Y-80803750D03*
X142815000Y-78263750D03*
X126583750Y-61753750D03*
X140433750Y-59213750D03*
X140871250Y-42703750D03*
X154721250Y-40163750D03*
X121821250Y-42703750D03*
X135671250Y-40163750D03*
X140871250Y-23653750D03*
X154721250Y-21113750D03*
X121821250Y-23653750D03*
X135671250Y-21113750D03*
X83721250Y-118903750D03*
X97571250Y-116363750D03*
X102771250Y-99853750D03*
X116621250Y-97313750D03*
X83721250Y-99853750D03*
X97571250Y-97313750D03*
X83721250Y-80803750D03*
X97571250Y-78263750D03*
X102771250Y-61753750D03*
X116621250Y-59213750D03*
X83721250Y-61753750D03*
X97571250Y-59213750D03*
X102771250Y-42703750D03*
X116621250Y-40163750D03*
X83721250Y-42703750D03*
X97571250Y-40163750D03*
X55146250Y-118903750D03*
X68996250Y-116363750D03*
X64671250Y-99853750D03*
X78521250Y-97313750D03*
X45621250Y-99853750D03*
X59471250Y-97313750D03*
X64671250Y-80803750D03*
X78521250Y-78263750D03*
X45621250Y-80803750D03*
X59471250Y-78263750D03*
X64671250Y-61753750D03*
X78521250Y-59213750D03*
X45621250Y-61753750D03*
X59471250Y-59213750D03*
X64671250Y-42703750D03*
X78521250Y-40163750D03*
X45621250Y-42703750D03*
X59471250Y-40163750D03*
D13*
X416781250Y-127000000D03*
X413481250Y-127000000D03*
X413481250Y-107950000D03*
X416781250Y-107950000D03*
X413481250Y-88900000D03*
X416781250Y-88900000D03*
X413481250Y-69850000D03*
X416781250Y-69850000D03*
X413481250Y-50737500D03*
X416781250Y-50737500D03*
X413481250Y-31750000D03*
X416781250Y-31750000D03*
X394431250Y-127000000D03*
X397731250Y-127000000D03*
X394431250Y-107950000D03*
X397731250Y-107950000D03*
X389668750Y-69850000D03*
X392968750Y-69850000D03*
X394431250Y-31750000D03*
X397731250Y-31750000D03*
X375381250Y-127000000D03*
X378681250Y-127000000D03*
X382525000Y-88900000D03*
X385825000Y-88900000D03*
X365856250Y-69850000D03*
X369156250Y-69850000D03*
X384906250Y-50800000D03*
X388206250Y-50800000D03*
X375381250Y-31750000D03*
X378681250Y-31750000D03*
X353950000Y-127000000D03*
X357250000Y-127000000D03*
X368237500Y-107950000D03*
X371537500Y-107950000D03*
X351568750Y-88900000D03*
X354868750Y-88900000D03*
X346806250Y-69850000D03*
X350106250Y-69850000D03*
X356331250Y-50800000D03*
X359631250Y-50800000D03*
X356331250Y-31750000D03*
X359631250Y-31750000D03*
X332518750Y-127000000D03*
X335818750Y-127000000D03*
X342043750Y-107950000D03*
X345343750Y-107950000D03*
X332518750Y-88900000D03*
X335818750Y-88900000D03*
X327756250Y-69850000D03*
X331056250Y-69850000D03*
X337281250Y-50800000D03*
X340581250Y-50800000D03*
X337281250Y-31750000D03*
X340581250Y-31750000D03*
X313468750Y-127000000D03*
X316768750Y-127000000D03*
X313468750Y-88900000D03*
X316768750Y-88900000D03*
X308706250Y-69850000D03*
X312006250Y-69850000D03*
X318231250Y-50800000D03*
X321531250Y-50800000D03*
X318231250Y-31750000D03*
X321531250Y-31750000D03*
X303943750Y-107950000D03*
X307243750Y-107950000D03*
X294418750Y-88900000D03*
X297718750Y-88900000D03*
X289656250Y-69850000D03*
X292956250Y-69850000D03*
X299181250Y-50800000D03*
X302481250Y-50800000D03*
X299181250Y-31750000D03*
X302481250Y-31750000D03*
X284893750Y-107950000D03*
X288193750Y-107950000D03*
X275368750Y-88900000D03*
X278668750Y-88900000D03*
X270543750Y-69850000D03*
X273843750Y-69850000D03*
X280131250Y-50800000D03*
X283431250Y-50800000D03*
X280131250Y-31750000D03*
X283431250Y-31750000D03*
X265843750Y-107950000D03*
X269143750Y-107950000D03*
X256318750Y-88900000D03*
X259618750Y-88900000D03*
X251556250Y-69850000D03*
X254856250Y-69850000D03*
X261081250Y-50800000D03*
X264381250Y-50800000D03*
X261081250Y-31750000D03*
X264381250Y-31750000D03*
X246793750Y-107950000D03*
X250093750Y-107950000D03*
X237268750Y-88900000D03*
X240568750Y-88900000D03*
X232506250Y-69850000D03*
X235806250Y-69850000D03*
X242031250Y-50800000D03*
X245331250Y-50800000D03*
X242031250Y-31750000D03*
X245331250Y-31750000D03*
X227743750Y-107950000D03*
X231043750Y-107950000D03*
X218218750Y-88900000D03*
X221518750Y-88900000D03*
X213456250Y-69850000D03*
X216756250Y-69850000D03*
X222918750Y-50800000D03*
X226218750Y-50800000D03*
X222981250Y-31750000D03*
X226281250Y-31750000D03*
X208693750Y-107950000D03*
X211993750Y-107950000D03*
X199168750Y-88900000D03*
X202468750Y-88900000D03*
X194406250Y-69850000D03*
X197706250Y-69850000D03*
X203931250Y-50800000D03*
X207231250Y-50800000D03*
X203931250Y-31750000D03*
X207231250Y-31750000D03*
X256318750Y-126603125D03*
X259618750Y-126603125D03*
X189643750Y-107950000D03*
X192943750Y-107950000D03*
X180118750Y-88900000D03*
X183418750Y-88900000D03*
X175356250Y-69850000D03*
X178656250Y-69850000D03*
X184881250Y-50800000D03*
X188181250Y-50800000D03*
X184881250Y-31750000D03*
X188181250Y-31750000D03*
X177737500Y-127000000D03*
X181037500Y-127000000D03*
X170593750Y-107950000D03*
X173893750Y-107950000D03*
X161068750Y-88900000D03*
X164368750Y-88900000D03*
X156306250Y-69850000D03*
X159606250Y-69850000D03*
X165831250Y-50800000D03*
X169131250Y-50800000D03*
X165831250Y-31750000D03*
X169131250Y-31750000D03*
X153925000Y-127000000D03*
X157225000Y-127000000D03*
X146781250Y-50800000D03*
X150081250Y-50800000D03*
X146781250Y-31750000D03*
X150081250Y-31750000D03*
X130112500Y-127000000D03*
X133412500Y-127000000D03*
X139637500Y-107950000D03*
X142937500Y-107950000D03*
X134875000Y-88900000D03*
X138175000Y-88900000D03*
X132493750Y-69850000D03*
X135793750Y-69850000D03*
X127731250Y-50800000D03*
X131031250Y-50800000D03*
X127731250Y-31750000D03*
X131031250Y-31750000D03*
X109078125Y-107950000D03*
X112378125Y-107950000D03*
X108681250Y-69850000D03*
X111981250Y-69850000D03*
X108681250Y-50800000D03*
X111981250Y-50800000D03*
X89631250Y-127000000D03*
X92931250Y-127000000D03*
X89631250Y-107950000D03*
X92931250Y-107950000D03*
X89234375Y-88900000D03*
X92534375Y-88900000D03*
X89693750Y-69850000D03*
X92993750Y-69850000D03*
X89631250Y-50800000D03*
X92931250Y-50800000D03*
X70581250Y-88900000D03*
X73881250Y-88900000D03*
X70581250Y-69850000D03*
X73881250Y-69850000D03*
X70581250Y-50800000D03*
X73881250Y-50800000D03*
X51531250Y-107950000D03*
X54831250Y-107950000D03*
X51531250Y-88900000D03*
X54831250Y-88900000D03*
X51531250Y-69850000D03*
X54831250Y-69850000D03*
X51531250Y-50800000D03*
X54831250Y-50800000D03*
D15*
X96440625Y-30956250D03*
X134540625Y-30956250D03*
X172640625Y-30956250D03*
X210740625Y-30956250D03*
X248840625Y-30956250D03*
X286940625Y-30956250D03*
X325040625Y-30956250D03*
X363140625Y-30956250D03*
X401240625Y-30956250D03*
X62309375Y-36115625D03*
X91678125Y-36115625D03*
X58340625Y-50800000D03*
X96440625Y-50800000D03*
X134540625Y-50800000D03*
X172640625Y-50800000D03*
X210740625Y-50800000D03*
X248840625Y-50800000D03*
X286940625Y-50800000D03*
X325040625Y-50800000D03*
X363140625Y-50800000D03*
X420290625Y-50800000D03*
X48418750Y-38893750D03*
X58340625Y-69850000D03*
X96440625Y-69850000D03*
X139303125Y-69850000D03*
X182165625Y-69850000D03*
X220265625Y-69850000D03*
X258365625Y-69850000D03*
X296465625Y-69850000D03*
X334565625Y-69850000D03*
X372665625Y-69850000D03*
X420290625Y-69850000D03*
X58340625Y-88900000D03*
X96440625Y-88900000D03*
X167878125Y-88900000D03*
X205978125Y-88900000D03*
X244078125Y-88900000D03*
X282178125Y-88900000D03*
X320278125Y-88900000D03*
X358378125Y-88900000D03*
X420290625Y-88900000D03*
X58340625Y-107950000D03*
X96440625Y-107950000D03*
X146446875Y-107950000D03*
X196453125Y-107950000D03*
X234553125Y-107950000D03*
X272653125Y-107950000D03*
X310753125Y-107950000D03*
X348853125Y-107950000D03*
X401240625Y-107950000D03*
X67865625Y-127000000D03*
X136921875Y-127000000D03*
X184546875Y-127000000D03*
X320278125Y-127000000D03*
X360759375Y-127000000D03*
X401240625Y-127000000D03*
X77390625Y-31750000D03*
X115490625Y-31750000D03*
X153590625Y-31750000D03*
X191690625Y-31750000D03*
X229790625Y-31750000D03*
X267890625Y-31750000D03*
X305990625Y-31750000D03*
X382190625Y-31750000D03*
X420290625Y-31750000D03*
X62309375Y-43259375D03*
X62309375Y-37306250D03*
X344090625Y-31750000D03*
X77390625Y-49609375D03*
X115490625Y-49609375D03*
X153590625Y-49609375D03*
X191690625Y-49609375D03*
X229790625Y-49609375D03*
X267890625Y-49609375D03*
X305990625Y-49609375D03*
X344090625Y-49609375D03*
X391715625Y-49609375D03*
X77390625Y-68659375D03*
X115490625Y-68659375D03*
X163115625Y-68659375D03*
X201215625Y-68659375D03*
X239315625Y-68659375D03*
X277415625Y-68659375D03*
X315515625Y-68659375D03*
X353615625Y-68659375D03*
X396478125Y-68659375D03*
X77390625Y-87709375D03*
X141684375Y-87709375D03*
X186928125Y-87709375D03*
X225028125Y-87709375D03*
X263128125Y-87709375D03*
X301228125Y-87709375D03*
X339328125Y-87709375D03*
X389334375Y-87709375D03*
X77390625Y-106759375D03*
X115490625Y-106759375D03*
X177403125Y-106759375D03*
X215503125Y-106759375D03*
X253603125Y-106759375D03*
X291703125Y-106759375D03*
X329803125Y-106759375D03*
X375046875Y-106759375D03*
X420290625Y-106759375D03*
X65881250Y-110331250D03*
X58340625Y-110331250D03*
X96440625Y-125809375D03*
X160734375Y-125809375D03*
X263128125Y-125809375D03*
X339328125Y-125809375D03*
X382190625Y-125809375D03*
X420290625Y-125809375D03*
X76200000Y-15478125D03*
X63896875Y-15478125D03*
X95250000Y-16271875D03*
X65087500Y-16271875D03*
X133746875Y-16668750D03*
X66278125Y-17065625D03*
X69056250Y-34131250D03*
X230981250Y-34131250D03*
X68262500Y-34925000D03*
X269081250Y-34925000D03*
X67071875Y-35448925D03*
X307181250Y-35718750D03*
X312340625Y-53578125D03*
X82550000Y-51990625D03*
X80962500Y-32940625D03*
X63500000Y-30956250D03*
X353218750Y-54768750D03*
X61515625Y-51593750D03*
X61515625Y-44450000D03*
X60721875Y-35718750D03*
X58340625Y-36512500D03*
X395287500Y-55562500D03*
D16*
X92931250Y-31750000D02*
X95646875Y-31750000D01*
X95646875Y-31750000D02*
X96440625Y-30956250D01*
X133746875Y-31750000D02*
X131031250Y-31750000D01*
X134540625Y-30956250D02*
X133746875Y-31750000D01*
X400446875Y-31750000D02*
X401240625Y-30956250D01*
X397731250Y-31750000D02*
X400446875Y-31750000D01*
X362346875Y-31750000D02*
X363140625Y-30956250D01*
X359631250Y-31750000D02*
X362346875Y-31750000D01*
X324246875Y-31750000D02*
X325040625Y-30956250D01*
X321531250Y-31750000D02*
X324246875Y-31750000D01*
X286146875Y-31750000D02*
X286940625Y-30956250D01*
X283431250Y-31750000D02*
X286146875Y-31750000D01*
X248046875Y-31750000D02*
X248840625Y-30956250D01*
X245331250Y-31750000D02*
X248046875Y-31750000D01*
X209946875Y-31750000D02*
X210740625Y-30956250D01*
X207231250Y-31750000D02*
X209946875Y-31750000D01*
X171846875Y-31750000D02*
X172640625Y-30956250D01*
X169131250Y-31750000D02*
X171846875Y-31750000D01*
X53340000Y-37124675D02*
X53918450Y-37703125D01*
X53340000Y-35321875D02*
X53340000Y-37124675D01*
X53918450Y-37703125D02*
X60721875Y-37703125D01*
X60721875Y-37703125D02*
X62309375Y-36115625D01*
X92931250Y-32527800D02*
X92931250Y-31750000D01*
X92931250Y-35428185D02*
X92931250Y-32527800D01*
X92243810Y-36115625D02*
X92931250Y-35428185D01*
X91678125Y-36115625D02*
X92243810Y-36115625D01*
D17*
X50831250Y-50800000D02*
X51531250Y-50800000D01*
X45621250Y-45590000D02*
X50831250Y-50800000D01*
X45621250Y-42703750D02*
X45621250Y-45590000D01*
D16*
X54831250Y-50800000D02*
X58340625Y-50800000D01*
X96440625Y-50800000D02*
X92931250Y-50800000D01*
X134540625Y-50800000D02*
X131031250Y-50800000D01*
X172640625Y-50800000D02*
X169131250Y-50800000D01*
X210740625Y-50800000D02*
X207231250Y-50800000D01*
X248840625Y-50800000D02*
X245331250Y-50800000D01*
X286940625Y-50800000D02*
X283431250Y-50800000D01*
X325040625Y-50800000D02*
X321531250Y-50800000D01*
X359631250Y-50800000D02*
X363140625Y-50800000D01*
X416843750Y-50800000D02*
X416781250Y-50737500D01*
X420290625Y-50800000D02*
X416843750Y-50800000D01*
X48418750Y-35480625D02*
X48260000Y-35321875D01*
X48418750Y-38893750D02*
X48418750Y-35480625D01*
D17*
X45621250Y-64640000D02*
X50831250Y-69850000D01*
X50831250Y-69850000D02*
X51531250Y-69850000D01*
X45621250Y-61753750D02*
X45621250Y-64640000D01*
D16*
X54831250Y-69850000D02*
X58340625Y-69850000D01*
X139303125Y-69850000D02*
X135793750Y-69850000D01*
X95874940Y-69850000D02*
X92993750Y-69850000D01*
X96440625Y-69850000D02*
X95874940Y-69850000D01*
X182165625Y-69850000D02*
X178656250Y-69850000D01*
X220265625Y-69850000D02*
X216756250Y-69850000D01*
X258365625Y-69850000D02*
X254856250Y-69850000D01*
X296465625Y-69850000D02*
X292956250Y-69850000D01*
X334565625Y-69850000D02*
X331056250Y-69850000D01*
X369156250Y-69850000D02*
X372665625Y-69850000D01*
X420290625Y-69850000D02*
X416781250Y-69850000D01*
X39211250Y-33416875D02*
X41402000Y-33416875D01*
X56356250Y-71834375D02*
X45640625Y-71834375D01*
X45640625Y-71834375D02*
X38893750Y-65087500D01*
X58340625Y-69850000D02*
X56356250Y-71834375D01*
X38893750Y-65087500D02*
X38893750Y-33734375D01*
X38893750Y-33734375D02*
X39211250Y-33416875D01*
D17*
X50831250Y-88900000D02*
X51531250Y-88900000D01*
X45621250Y-83690000D02*
X50831250Y-88900000D01*
X45621250Y-80803750D02*
X45621250Y-83690000D01*
D16*
X54831250Y-88900000D02*
X58340625Y-88900000D01*
X96440625Y-88900000D02*
X92534375Y-88900000D01*
X167878125Y-88900000D02*
X164368750Y-88900000D01*
X205978125Y-88900000D02*
X202468750Y-88900000D01*
X244078125Y-88900000D02*
X240568750Y-88900000D01*
X282178125Y-88900000D02*
X278668750Y-88900000D01*
X320278125Y-88900000D02*
X316768750Y-88900000D01*
X358378125Y-88900000D02*
X354868750Y-88900000D01*
X420290625Y-88900000D02*
X416781250Y-88900000D01*
X38817532Y-28336875D02*
X41402000Y-28336875D01*
X56356250Y-90884375D02*
X45640625Y-90884375D01*
X45640625Y-90884375D02*
X38141266Y-83385016D01*
X58340625Y-88900000D02*
X56356250Y-90884375D01*
X38141266Y-83385016D02*
X38141266Y-29013141D01*
X38141266Y-29013141D02*
X38817532Y-28336875D01*
D17*
X45621250Y-101353750D02*
X45621250Y-99853750D01*
X45621250Y-102740000D02*
X45621250Y-101353750D01*
X50831250Y-107950000D02*
X45621250Y-102740000D01*
X51531250Y-107950000D02*
X50831250Y-107950000D01*
D16*
X54831250Y-107950000D02*
X58340625Y-107950000D01*
X96440625Y-107950000D02*
X92931250Y-107950000D01*
X145881190Y-107950000D02*
X142937500Y-107950000D01*
X146446875Y-107950000D02*
X145881190Y-107950000D01*
X196453125Y-107950000D02*
X192943750Y-107950000D01*
X234553125Y-107950000D02*
X231043750Y-107950000D01*
X272653125Y-107950000D02*
X269143750Y-107950000D01*
X310753125Y-107950000D02*
X307243750Y-107950000D01*
X348853125Y-107950000D02*
X345343750Y-107950000D01*
X401240625Y-107950000D02*
X397731250Y-107950000D01*
X58340625Y-107950000D02*
X56356250Y-109934375D01*
X56356250Y-109934375D02*
X45640625Y-109934375D01*
X37347516Y-101641266D02*
X37347516Y-25441266D01*
X45640625Y-109934375D02*
X37347516Y-101641266D01*
X39531907Y-23256875D02*
X41402000Y-23256875D01*
X37347516Y-25441266D02*
X39531907Y-23256875D01*
D17*
X60356250Y-127000000D02*
X61056250Y-127000000D01*
X55146250Y-121790000D02*
X60356250Y-127000000D01*
X55146250Y-118903750D02*
X55146250Y-121790000D01*
D16*
X64356250Y-127000000D02*
X67865625Y-127000000D01*
X136921875Y-127000000D02*
X133412500Y-127000000D01*
X181037500Y-127000000D02*
X184546875Y-127000000D01*
X320278125Y-127000000D02*
X316768750Y-127000000D01*
X360759375Y-127000000D02*
X357250000Y-127000000D01*
X401240625Y-127000000D02*
X397731250Y-127000000D01*
X67865625Y-127000000D02*
X65881250Y-128984375D01*
X65881250Y-128984375D02*
X55165625Y-128984375D01*
X39599200Y-18176875D02*
X41402000Y-18176875D01*
X36636297Y-110455047D02*
X36636297Y-21139778D01*
X36636297Y-21139778D02*
X39599200Y-18176875D01*
X55165625Y-128984375D02*
X36636297Y-110455047D01*
D17*
X64671250Y-23653750D02*
X64671250Y-26540000D01*
X64671250Y-26540000D02*
X69881250Y-31750000D01*
X69881250Y-31750000D02*
X70581250Y-31750000D01*
D16*
X73881250Y-31750000D02*
X77390625Y-31750000D01*
X115490625Y-31750000D02*
X111981250Y-31750000D01*
X153590625Y-31750000D02*
X150081250Y-31750000D01*
X191690625Y-31750000D02*
X188181250Y-31750000D01*
X229790625Y-31750000D02*
X226281250Y-31750000D01*
X267890625Y-31750000D02*
X264381250Y-31750000D01*
X382190625Y-31750000D02*
X378681250Y-31750000D01*
X420290625Y-31750000D02*
X416781250Y-31750000D01*
X50800000Y-35321875D02*
X50800000Y-38893750D01*
X50800000Y-38893750D02*
X55165625Y-43259375D01*
X55165625Y-43259375D02*
X62309375Y-43259375D01*
X73881250Y-32527800D02*
X73881250Y-31750000D01*
X69102800Y-37306250D02*
X73881250Y-32527800D01*
X62309375Y-37306250D02*
X69102800Y-37306250D01*
X302481250Y-31750000D02*
X305990625Y-31750000D01*
X340581250Y-31750000D02*
X344090625Y-31750000D01*
D17*
X69881250Y-50800000D02*
X70581250Y-50800000D01*
X64671250Y-45590000D02*
X69881250Y-50800000D01*
X64671250Y-42703750D02*
X64671250Y-45590000D01*
D16*
X73881250Y-50800000D02*
X76200000Y-50800000D01*
X76200000Y-50800000D02*
X77390625Y-49609375D01*
X114300000Y-50800000D02*
X111981250Y-50800000D01*
X115490625Y-49609375D02*
X114300000Y-50800000D01*
X390525000Y-50800000D02*
X391715625Y-49609375D01*
X388206250Y-50800000D02*
X390525000Y-50800000D01*
X342900000Y-50800000D02*
X344090625Y-49609375D01*
X340581250Y-50800000D02*
X342900000Y-50800000D01*
X304800000Y-50800000D02*
X305990625Y-49609375D01*
X302481250Y-50800000D02*
X304800000Y-50800000D01*
X266700000Y-50800000D02*
X267890625Y-49609375D01*
X264381250Y-50800000D02*
X266700000Y-50800000D01*
X228600000Y-50800000D02*
X229790625Y-49609375D01*
X226218750Y-50800000D02*
X228600000Y-50800000D01*
X190500000Y-50800000D02*
X191690625Y-49609375D01*
X188181250Y-50800000D02*
X190500000Y-50800000D01*
X152400000Y-50800000D02*
X153590625Y-49609375D01*
X150081250Y-50800000D02*
X152400000Y-50800000D01*
X45720000Y-38814375D02*
X45720000Y-35321875D01*
X43259375Y-41275000D02*
X45720000Y-38814375D01*
X43259375Y-51990625D02*
X43259375Y-41275000D01*
X77390625Y-51990625D02*
X77390625Y-52784375D01*
X76200000Y-50800000D02*
X77390625Y-51990625D01*
X77390625Y-52784375D02*
X76200000Y-53975000D01*
X76200000Y-53975000D02*
X45243750Y-53975000D01*
X45243750Y-53975000D02*
X43259375Y-51990625D01*
D17*
X69881250Y-69850000D02*
X70581250Y-69850000D01*
X64671250Y-64640000D02*
X69881250Y-69850000D01*
X64671250Y-61753750D02*
X64671250Y-64640000D01*
D16*
X73881250Y-69850000D02*
X76200000Y-69850000D01*
X76200000Y-69850000D02*
X77390625Y-68659375D01*
X114300000Y-69850000D02*
X115490625Y-68659375D01*
X111981250Y-69850000D02*
X114300000Y-69850000D01*
X38973125Y-30876875D02*
X41402000Y-30876875D01*
X38496875Y-31353125D02*
X38973125Y-30876875D01*
X38496875Y-65193533D02*
X38496875Y-31353125D01*
X76993750Y-70643750D02*
X76993750Y-71437500D01*
X45534592Y-72231250D02*
X38496875Y-65193533D01*
X76200000Y-69850000D02*
X76993750Y-70643750D01*
X76993750Y-71437500D02*
X76200000Y-72231250D01*
X76200000Y-72231250D02*
X45534592Y-72231250D01*
X159606250Y-69850000D02*
X161925000Y-69850000D01*
X161925000Y-69850000D02*
X163115625Y-68659375D01*
X395287500Y-69850000D02*
X396478125Y-68659375D01*
X392968750Y-69850000D02*
X395287500Y-69850000D01*
X352425000Y-69850000D02*
X353615625Y-68659375D01*
X350106250Y-69850000D02*
X352425000Y-69850000D01*
X314325000Y-69850000D02*
X315515625Y-68659375D01*
X312006250Y-69850000D02*
X314325000Y-69850000D01*
X276225000Y-69850000D02*
X277415625Y-68659375D01*
X273843750Y-69850000D02*
X276225000Y-69850000D01*
X238125000Y-69850000D02*
X239315625Y-68659375D01*
X235806250Y-69850000D02*
X238125000Y-69850000D01*
X200025000Y-69850000D02*
X201215625Y-68659375D01*
X197706250Y-69850000D02*
X200025000Y-69850000D01*
D17*
X69881250Y-88900000D02*
X70581250Y-88900000D01*
X64671250Y-83690000D02*
X69881250Y-88900000D01*
X64671250Y-80803750D02*
X64671250Y-83690000D01*
D16*
X73881250Y-88900000D02*
X76200000Y-88900000D01*
X76200000Y-88900000D02*
X77390625Y-87709375D01*
X388143750Y-88900000D02*
X389334375Y-87709375D01*
X385825000Y-88900000D02*
X388143750Y-88900000D01*
X338137500Y-88900000D02*
X339328125Y-87709375D01*
X335818750Y-88900000D02*
X338137500Y-88900000D01*
X300037500Y-88900000D02*
X301228125Y-87709375D01*
X297718750Y-88900000D02*
X300037500Y-88900000D01*
X261937500Y-88900000D02*
X263128125Y-87709375D01*
X259618750Y-88900000D02*
X261937500Y-88900000D01*
X223837500Y-88900000D02*
X225028125Y-87709375D01*
X221518750Y-88900000D02*
X223837500Y-88900000D01*
X185737500Y-88900000D02*
X186928125Y-87709375D01*
X183418750Y-88900000D02*
X185737500Y-88900000D01*
X140493750Y-88900000D02*
X141684375Y-87709375D01*
X138175000Y-88900000D02*
X140493750Y-88900000D01*
X37703125Y-27384375D02*
X39290625Y-25796875D01*
X37703125Y-83449783D02*
X37703125Y-27384375D01*
X76993750Y-89693750D02*
X76993750Y-90487500D01*
X76200000Y-88900000D02*
X76993750Y-89693750D01*
X76993750Y-90487500D02*
X76200000Y-91281250D01*
X39290625Y-25796875D02*
X41402000Y-25796875D01*
X76200000Y-91281250D02*
X45534592Y-91281250D01*
X45534592Y-91281250D02*
X37703125Y-83449783D01*
D17*
X64671250Y-102740000D02*
X69881250Y-107950000D01*
X69881250Y-107950000D02*
X70581250Y-107950000D01*
X64671250Y-99853750D02*
X64671250Y-102740000D01*
D16*
X73881250Y-107950000D02*
X76200000Y-107950000D01*
X76200000Y-107950000D02*
X77390625Y-106759375D01*
X419100000Y-107950000D02*
X420290625Y-106759375D01*
X416781250Y-107950000D02*
X419100000Y-107950000D01*
X373856250Y-107950000D02*
X375046875Y-106759375D01*
X371537500Y-107950000D02*
X373856250Y-107950000D01*
X328612500Y-107950000D02*
X329803125Y-106759375D01*
X326293750Y-107950000D02*
X328612500Y-107950000D01*
X290512500Y-107950000D02*
X291703125Y-106759375D01*
X288193750Y-107950000D02*
X290512500Y-107950000D01*
X252412500Y-107950000D02*
X253603125Y-106759375D01*
X250093750Y-107950000D02*
X252412500Y-107950000D01*
X214312500Y-107950000D02*
X215503125Y-106759375D01*
X211993750Y-107950000D02*
X214312500Y-107950000D01*
X176212500Y-107950000D02*
X177403125Y-106759375D01*
X173893750Y-107950000D02*
X176212500Y-107950000D01*
X114300000Y-107950000D02*
X115490625Y-106759375D01*
X112378125Y-107950000D02*
X114300000Y-107950000D01*
X76200000Y-107950000D02*
X76993750Y-108743750D01*
X76993750Y-108743750D02*
X76993750Y-109537500D01*
X76993750Y-109537500D02*
X76200000Y-110331250D01*
X76200000Y-110331250D02*
X65881250Y-110331250D01*
X39599200Y-20716875D02*
X41402000Y-20716875D01*
X36991906Y-23324169D02*
X39599200Y-20716875D01*
X45534592Y-110331250D02*
X36991906Y-101788564D01*
X36991906Y-101788564D02*
X36991906Y-23324169D01*
X58340625Y-110331250D02*
X45534592Y-110331250D01*
D17*
X88931250Y-31750000D02*
X89631250Y-31750000D01*
X83721250Y-26540000D02*
X88931250Y-31750000D01*
X83721250Y-23653750D02*
X83721250Y-26540000D01*
X83721250Y-45590000D02*
X88931250Y-50800000D01*
X88931250Y-50800000D02*
X89631250Y-50800000D01*
X83721250Y-42703750D02*
X83721250Y-45590000D01*
X88993750Y-69850000D02*
X89693750Y-69850000D01*
X83721250Y-64577500D02*
X88993750Y-69850000D01*
X83721250Y-61753750D02*
X83721250Y-64577500D01*
X88534375Y-88900000D02*
X89234375Y-88900000D01*
X83721250Y-84086875D02*
X88534375Y-88900000D01*
X83721250Y-80803750D02*
X83721250Y-84086875D01*
X88931250Y-107950000D02*
X89631250Y-107950000D01*
X83721250Y-102740000D02*
X88931250Y-107950000D01*
X83721250Y-99853750D02*
X83721250Y-102740000D01*
X88931250Y-127000000D02*
X89631250Y-127000000D01*
X83721250Y-121790000D02*
X88931250Y-127000000D01*
X83721250Y-118903750D02*
X83721250Y-121790000D01*
D16*
X92931250Y-127000000D02*
X95250000Y-127000000D01*
X95250000Y-127000000D02*
X96440625Y-125809375D01*
X419100000Y-127000000D02*
X420290625Y-125809375D01*
X416781250Y-127000000D02*
X419100000Y-127000000D01*
X381000000Y-127000000D02*
X382190625Y-125809375D01*
X378681250Y-127000000D02*
X381000000Y-127000000D01*
X338137500Y-127000000D02*
X339328125Y-125809375D01*
X335818750Y-127000000D02*
X338137500Y-127000000D01*
X262334375Y-126603125D02*
X263128125Y-125809375D01*
X259618750Y-126603125D02*
X262334375Y-126603125D01*
X159543750Y-127000000D02*
X160734375Y-125809375D01*
X157225000Y-127000000D02*
X159543750Y-127000000D01*
X95250000Y-129778125D02*
X79375000Y-129778125D01*
X79375000Y-129778125D02*
X76596875Y-132556250D01*
X96043750Y-128984375D02*
X95250000Y-129778125D01*
X96043750Y-127793750D02*
X96043750Y-128984375D01*
X95250000Y-127000000D02*
X96043750Y-127793750D01*
X39599200Y-15636875D02*
X41402000Y-15636875D01*
X76596875Y-132556250D02*
X72628125Y-132556250D01*
X72628125Y-132556250D02*
X69453125Y-129381250D01*
X55059592Y-129381250D02*
X36280687Y-110602345D01*
X69453125Y-129381250D02*
X55059592Y-129381250D01*
X36280687Y-18955388D02*
X39599200Y-15636875D01*
X36280687Y-110602345D02*
X36280687Y-18955388D01*
D17*
X107981250Y-31750000D02*
X108681250Y-31750000D01*
X102771250Y-23653750D02*
X102771250Y-26540000D01*
X102771250Y-26540000D02*
X107981250Y-31750000D01*
X102771250Y-45590000D02*
X107981250Y-50800000D01*
X107981250Y-50800000D02*
X108681250Y-50800000D01*
X102771250Y-42703750D02*
X102771250Y-45590000D01*
X102771250Y-64640000D02*
X102771250Y-63253750D01*
X102771250Y-63253750D02*
X102771250Y-61753750D01*
X107981250Y-69850000D02*
X102771250Y-64640000D01*
X108681250Y-69850000D02*
X107981250Y-69850000D01*
X108378125Y-107950000D02*
X109078125Y-107950000D01*
X103168125Y-102740000D02*
X108378125Y-107950000D01*
X103168125Y-99853750D02*
X103168125Y-102740000D01*
X127031250Y-31750000D02*
X127731250Y-31750000D01*
X121821250Y-26540000D02*
X127031250Y-31750000D01*
X121821250Y-23653750D02*
X121821250Y-26540000D01*
X127031250Y-50800000D02*
X127731250Y-50800000D01*
X121821250Y-45590000D02*
X127031250Y-50800000D01*
X121821250Y-42703750D02*
X121821250Y-45590000D01*
X131793750Y-69850000D02*
X132493750Y-69850000D01*
X126583750Y-64640000D02*
X131793750Y-69850000D01*
X126583750Y-61753750D02*
X126583750Y-64640000D01*
X134175000Y-88900000D02*
X134875000Y-88900000D01*
X128965000Y-83690000D02*
X134175000Y-88900000D01*
X128965000Y-80803750D02*
X128965000Y-83690000D01*
X138937500Y-107950000D02*
X139637500Y-107950000D01*
X133727500Y-102740000D02*
X138937500Y-107950000D01*
X133727500Y-99853750D02*
X133727500Y-102740000D01*
X129412500Y-127000000D02*
X130112500Y-127000000D01*
X124202500Y-121790000D02*
X129412500Y-127000000D01*
X124202500Y-118903750D02*
X124202500Y-121790000D01*
X146081250Y-31750000D02*
X146781250Y-31750000D01*
X140871250Y-26540000D02*
X146081250Y-31750000D01*
X140871250Y-23653750D02*
X140871250Y-26540000D01*
X146081250Y-50800000D02*
X146781250Y-50800000D01*
X140871250Y-45590000D02*
X146081250Y-50800000D01*
X140871250Y-42703750D02*
X140871250Y-45590000D01*
X153225000Y-127000000D02*
X153925000Y-127000000D01*
X148015000Y-121790000D02*
X153225000Y-127000000D01*
X148015000Y-118903750D02*
X148015000Y-121790000D01*
X165131250Y-31750000D02*
X165831250Y-31750000D01*
X159921250Y-26540000D02*
X165131250Y-31750000D01*
X159921250Y-23653750D02*
X159921250Y-26540000D01*
X165131250Y-50800000D02*
X165831250Y-50800000D01*
X159921250Y-45590000D02*
X165131250Y-50800000D01*
X159921250Y-42703750D02*
X159921250Y-45590000D01*
X155606250Y-69850000D02*
X156306250Y-69850000D01*
X150396250Y-64640000D02*
X155606250Y-69850000D01*
X150396250Y-61753750D02*
X150396250Y-64640000D01*
X160368750Y-88900000D02*
X161068750Y-88900000D01*
X155158750Y-83690000D02*
X160368750Y-88900000D01*
X155158750Y-80803750D02*
X155158750Y-83690000D01*
X169893750Y-107950000D02*
X170593750Y-107950000D01*
X164683750Y-102740000D02*
X169893750Y-107950000D01*
X164683750Y-99853750D02*
X164683750Y-102740000D01*
X177037500Y-127000000D02*
X177737500Y-127000000D01*
X171827500Y-121790000D02*
X177037500Y-127000000D01*
X171827500Y-118903750D02*
X171827500Y-121790000D01*
X184181250Y-31750000D02*
X184881250Y-31750000D01*
X178971250Y-26540000D02*
X184181250Y-31750000D01*
X178971250Y-23653750D02*
X178971250Y-26540000D01*
X184181250Y-50800000D02*
X184881250Y-50800000D01*
X178971250Y-45590000D02*
X184181250Y-50800000D01*
X178971250Y-42703750D02*
X178971250Y-45590000D01*
X174656250Y-69850000D02*
X175356250Y-69850000D01*
X169446250Y-64640000D02*
X174656250Y-69850000D01*
X169446250Y-61753750D02*
X169446250Y-64640000D01*
X179418750Y-88900000D02*
X180118750Y-88900000D01*
X174208750Y-83690000D02*
X179418750Y-88900000D01*
X174208750Y-80803750D02*
X174208750Y-83690000D01*
X188943750Y-107950000D02*
X189643750Y-107950000D01*
X183733750Y-102740000D02*
X188943750Y-107950000D01*
X183733750Y-99853750D02*
X183733750Y-102740000D01*
X255618750Y-126603125D02*
X256318750Y-126603125D01*
X250408750Y-121393125D02*
X255618750Y-126603125D01*
X250408750Y-118903750D02*
X250408750Y-121393125D01*
X203231250Y-31750000D02*
X203931250Y-31750000D01*
X198021250Y-26540000D02*
X203231250Y-31750000D01*
X198021250Y-23653750D02*
X198021250Y-26540000D01*
X203231250Y-50800000D02*
X203931250Y-50800000D01*
X198021250Y-45590000D02*
X203231250Y-50800000D01*
X198021250Y-42703750D02*
X198021250Y-45590000D01*
X193706250Y-69850000D02*
X194406250Y-69850000D01*
X188496250Y-64640000D02*
X193706250Y-69850000D01*
X188496250Y-61753750D02*
X188496250Y-64640000D01*
X198468750Y-88900000D02*
X199168750Y-88900000D01*
X193258750Y-83690000D02*
X198468750Y-88900000D01*
X193258750Y-80803750D02*
X193258750Y-83690000D01*
X207993750Y-107950000D02*
X208693750Y-107950000D01*
X202783750Y-102740000D02*
X207993750Y-107950000D01*
X202783750Y-99853750D02*
X202783750Y-102740000D01*
X222281250Y-31750000D02*
X222981250Y-31750000D01*
X217071250Y-26540000D02*
X222281250Y-31750000D01*
X217071250Y-23653750D02*
X217071250Y-26540000D01*
X222218750Y-50800000D02*
X222918750Y-50800000D01*
X217071250Y-45652500D02*
X222218750Y-50800000D01*
X217071250Y-42703750D02*
X217071250Y-45652500D01*
X212756250Y-69850000D02*
X213456250Y-69850000D01*
X207546250Y-64640000D02*
X212756250Y-69850000D01*
X207546250Y-61753750D02*
X207546250Y-64640000D01*
X217518750Y-88900000D02*
X218218750Y-88900000D01*
X212308750Y-83690000D02*
X217518750Y-88900000D01*
X212308750Y-80803750D02*
X212308750Y-83690000D01*
X227043750Y-107950000D02*
X227743750Y-107950000D01*
X221833750Y-102740000D02*
X227043750Y-107950000D01*
X221833750Y-99853750D02*
X221833750Y-102740000D01*
X241331250Y-31750000D02*
X242031250Y-31750000D01*
X236121250Y-26540000D02*
X241331250Y-31750000D01*
X236121250Y-23653750D02*
X236121250Y-26540000D01*
X241331250Y-50800000D02*
X242031250Y-50800000D01*
X236121250Y-45590000D02*
X241331250Y-50800000D01*
X236121250Y-42703750D02*
X236121250Y-45590000D01*
X226596250Y-64640000D02*
X231806250Y-69850000D01*
X226596250Y-61753750D02*
X226596250Y-64640000D01*
X231806250Y-69850000D02*
X232506250Y-69850000D01*
X236568750Y-88900000D02*
X237268750Y-88900000D01*
X231358750Y-83690000D02*
X236568750Y-88900000D01*
X231358750Y-80803750D02*
X231358750Y-83690000D01*
X246093750Y-107950000D02*
X246793750Y-107950000D01*
X240883750Y-102740000D02*
X246093750Y-107950000D01*
X240883750Y-99853750D02*
X240883750Y-102740000D01*
X260381250Y-31750000D02*
X261081250Y-31750000D01*
X255171250Y-26540000D02*
X260381250Y-31750000D01*
X255171250Y-23653750D02*
X255171250Y-26540000D01*
X260381250Y-50800000D02*
X261081250Y-50800000D01*
X255171250Y-45590000D02*
X260381250Y-50800000D01*
X255171250Y-42703750D02*
X255171250Y-45590000D01*
X250856250Y-69850000D02*
X251556250Y-69850000D01*
X245646250Y-64640000D02*
X250856250Y-69850000D01*
X245646250Y-61753750D02*
X245646250Y-64640000D01*
X255618750Y-88900000D02*
X256318750Y-88900000D01*
X250408750Y-83690000D02*
X255618750Y-88900000D01*
X250408750Y-80803750D02*
X250408750Y-83690000D01*
X265143750Y-107950000D02*
X265843750Y-107950000D01*
X259933750Y-102740000D02*
X265143750Y-107950000D01*
X259933750Y-99853750D02*
X259933750Y-102740000D01*
X279431250Y-31750000D02*
X280131250Y-31750000D01*
X274221250Y-26540000D02*
X279431250Y-31750000D01*
X274221250Y-23653750D02*
X274221250Y-26540000D01*
X279431250Y-50800000D02*
X280131250Y-50800000D01*
X274221250Y-45590000D02*
X279431250Y-50800000D01*
X274221250Y-42703750D02*
X274221250Y-45590000D01*
X269843750Y-69850000D02*
X270543750Y-69850000D01*
X264696250Y-64702500D02*
X269843750Y-69850000D01*
X264696250Y-61753750D02*
X264696250Y-64702500D01*
X274668750Y-88900000D02*
X275368750Y-88900000D01*
X269458750Y-83690000D02*
X274668750Y-88900000D01*
X269458750Y-80803750D02*
X269458750Y-83690000D01*
X278983750Y-102740000D02*
X284193750Y-107950000D01*
X284193750Y-107950000D02*
X284893750Y-107950000D01*
X278983750Y-99853750D02*
X278983750Y-102740000D01*
X298481250Y-31750000D02*
X299181250Y-31750000D01*
X293271250Y-26540000D02*
X298481250Y-31750000D01*
X293271250Y-23653750D02*
X293271250Y-26540000D01*
X298481250Y-50800000D02*
X299181250Y-50800000D01*
X293271250Y-45590000D02*
X298481250Y-50800000D01*
X293271250Y-42703750D02*
X293271250Y-45590000D01*
X288956250Y-69850000D02*
X289656250Y-69850000D01*
X283746250Y-64640000D02*
X288956250Y-69850000D01*
X283746250Y-61753750D02*
X283746250Y-64640000D01*
X293718750Y-88900000D02*
X294418750Y-88900000D01*
X288508750Y-83690000D02*
X293718750Y-88900000D01*
X288508750Y-80803750D02*
X288508750Y-83690000D01*
X298033750Y-102740000D02*
X303243750Y-107950000D01*
X298033750Y-99853750D02*
X298033750Y-102740000D01*
X303243750Y-107950000D02*
X303943750Y-107950000D01*
X317531250Y-31750000D02*
X318231250Y-31750000D01*
X312321250Y-26540000D02*
X317531250Y-31750000D01*
X312321250Y-23653750D02*
X312321250Y-26540000D01*
X312321250Y-45590000D02*
X317531250Y-50800000D01*
X317531250Y-50800000D02*
X318231250Y-50800000D01*
X312321250Y-42703750D02*
X312321250Y-45590000D01*
X308006250Y-69850000D02*
X308706250Y-69850000D01*
X302796250Y-64640000D02*
X308006250Y-69850000D01*
X302796250Y-61753750D02*
X302796250Y-64640000D01*
X312768750Y-88900000D02*
X313468750Y-88900000D01*
X307558750Y-83690000D02*
X312768750Y-88900000D01*
X307558750Y-80803750D02*
X307558750Y-83690000D01*
X322293750Y-107950000D02*
X322993750Y-107950000D01*
X317083750Y-102740000D02*
X322293750Y-107950000D01*
X317083750Y-99853750D02*
X317083750Y-102740000D01*
X307558750Y-121790000D02*
X312768750Y-127000000D01*
X312768750Y-127000000D02*
X313468750Y-127000000D01*
X307558750Y-118903750D02*
X307558750Y-121790000D01*
X331371250Y-26540000D02*
X336581250Y-31750000D01*
X336581250Y-31750000D02*
X337281250Y-31750000D01*
X331371250Y-23653750D02*
X331371250Y-26540000D01*
X336581250Y-50800000D02*
X337281250Y-50800000D01*
X331371250Y-45590000D02*
X336581250Y-50800000D01*
X331371250Y-42703750D02*
X331371250Y-45590000D01*
X327056250Y-69850000D02*
X327756250Y-69850000D01*
X321846250Y-64640000D02*
X327056250Y-69850000D01*
X321846250Y-61753750D02*
X321846250Y-64640000D01*
X326608750Y-83690000D02*
X331818750Y-88900000D01*
X331818750Y-88900000D02*
X332518750Y-88900000D01*
X326608750Y-80803750D02*
X326608750Y-83690000D01*
X341343750Y-107950000D02*
X342043750Y-107950000D01*
X336133750Y-102740000D02*
X341343750Y-107950000D01*
X336133750Y-99853750D02*
X336133750Y-102740000D01*
X331818750Y-127000000D02*
X332518750Y-127000000D01*
X326608750Y-121790000D02*
X331818750Y-127000000D01*
X326608750Y-118903750D02*
X326608750Y-121790000D01*
X350421250Y-26540000D02*
X355631250Y-31750000D01*
X355631250Y-31750000D02*
X356331250Y-31750000D01*
X350421250Y-23653750D02*
X350421250Y-26540000D01*
X355631250Y-50800000D02*
X356331250Y-50800000D01*
X350421250Y-45590000D02*
X355631250Y-50800000D01*
X350421250Y-42703750D02*
X350421250Y-45590000D01*
X346106250Y-69850000D02*
X346806250Y-69850000D01*
X340896250Y-64640000D02*
X346106250Y-69850000D01*
X340896250Y-61753750D02*
X340896250Y-64640000D01*
X345658750Y-83690000D02*
X350868750Y-88900000D01*
X350868750Y-88900000D02*
X351568750Y-88900000D01*
X345658750Y-80803750D02*
X345658750Y-83690000D01*
X362327500Y-102740000D02*
X367537500Y-107950000D01*
X367537500Y-107950000D02*
X368237500Y-107950000D01*
X362327500Y-99853750D02*
X362327500Y-102740000D01*
X353250000Y-127000000D02*
X353950000Y-127000000D01*
X348040000Y-121790000D02*
X353250000Y-127000000D01*
X348040000Y-118903750D02*
X348040000Y-121790000D01*
X369471250Y-26540000D02*
X374681250Y-31750000D01*
X374681250Y-31750000D02*
X375381250Y-31750000D01*
X369471250Y-23653750D02*
X369471250Y-26540000D01*
X384206250Y-50800000D02*
X384906250Y-50800000D01*
X378996250Y-45590000D02*
X384206250Y-50800000D01*
X378996250Y-42703750D02*
X378996250Y-45590000D01*
X365156250Y-69850000D02*
X365856250Y-69850000D01*
X359946250Y-64640000D02*
X365156250Y-69850000D01*
X359946250Y-61753750D02*
X359946250Y-64640000D01*
X381825000Y-88900000D02*
X382525000Y-88900000D01*
X376615000Y-83690000D02*
X381825000Y-88900000D01*
X376615000Y-80803750D02*
X376615000Y-83690000D01*
X374681250Y-127000000D02*
X375381250Y-127000000D01*
X369471250Y-121790000D02*
X374681250Y-127000000D01*
X369471250Y-118903750D02*
X369471250Y-121790000D01*
X393731250Y-31750000D02*
X394431250Y-31750000D01*
X388521250Y-26540000D02*
X393731250Y-31750000D01*
X388521250Y-23653750D02*
X388521250Y-26540000D01*
X388968750Y-69850000D02*
X389668750Y-69850000D01*
X383758750Y-64640000D02*
X388968750Y-69850000D01*
X383758750Y-61753750D02*
X383758750Y-64640000D01*
X393731250Y-107950000D02*
X394431250Y-107950000D01*
X388521250Y-102740000D02*
X393731250Y-107950000D01*
X388521250Y-99853750D02*
X388521250Y-102740000D01*
X393731250Y-127000000D02*
X394431250Y-127000000D01*
X388521250Y-121790000D02*
X393731250Y-127000000D01*
X388521250Y-118903750D02*
X388521250Y-121790000D01*
X412781250Y-31750000D02*
X413481250Y-31750000D01*
X407571250Y-26540000D02*
X412781250Y-31750000D01*
X407571250Y-23653750D02*
X407571250Y-26540000D01*
X412781250Y-50737500D02*
X413481250Y-50737500D01*
X407571250Y-45527500D02*
X412781250Y-50737500D01*
X407571250Y-42703750D02*
X407571250Y-45527500D01*
X412781250Y-69850000D02*
X413481250Y-69850000D01*
X407571250Y-64640000D02*
X412781250Y-69850000D01*
X407571250Y-61753750D02*
X407571250Y-64640000D01*
X412781250Y-88900000D02*
X413481250Y-88900000D01*
X407571250Y-83690000D02*
X412781250Y-88900000D01*
X407571250Y-80803750D02*
X407571250Y-83690000D01*
X412781250Y-107950000D02*
X413481250Y-107950000D01*
X407571250Y-102740000D02*
X412781250Y-107950000D01*
X407571250Y-99853750D02*
X407571250Y-102740000D01*
X412781250Y-127000000D02*
X413481250Y-127000000D01*
X407571250Y-121790000D02*
X412781250Y-127000000D01*
X407571250Y-118903750D02*
X407571250Y-121790000D01*
D16*
X78521250Y-38735950D02*
X78160149Y-38374849D01*
X59471250Y-38735950D02*
X59471250Y-40163750D01*
X59832351Y-38374849D02*
X59471250Y-38735950D01*
X78160149Y-38374849D02*
X59832351Y-38374849D01*
X78521250Y-40163750D02*
X78521250Y-38735950D01*
X59471250Y-57785950D02*
X59471250Y-59213750D01*
X59832351Y-57424849D02*
X59471250Y-57785950D01*
X78521250Y-57785950D02*
X78160149Y-57424849D01*
X78160149Y-57424849D02*
X59832351Y-57424849D01*
X78521250Y-59213750D02*
X78521250Y-57785950D01*
X59471250Y-76835950D02*
X59471250Y-78263750D01*
X59832351Y-76474849D02*
X59471250Y-76835950D01*
X78160149Y-76474849D02*
X59832351Y-76474849D01*
X78521250Y-76835950D02*
X78160149Y-76474849D01*
X59471250Y-95885950D02*
X59471250Y-97313750D01*
X59832351Y-95524849D02*
X59471250Y-95885950D01*
X78160149Y-95524849D02*
X59832351Y-95524849D01*
X78521250Y-95885950D02*
X78160149Y-95524849D01*
X78521250Y-40163750D02*
X78521250Y-21113750D01*
X59471250Y-98741550D02*
X59471250Y-97313750D01*
X59471250Y-105410950D02*
X59471250Y-98741550D01*
X68996250Y-114935950D02*
X59471250Y-105410950D01*
X68996250Y-116363750D02*
X68996250Y-114935950D01*
X78521250Y-95885950D02*
X78521250Y-78263750D01*
X78521250Y-97313750D02*
X78521250Y-95885950D01*
X78521250Y-76835950D02*
X78521250Y-59213750D01*
X78521250Y-78263750D02*
X78521250Y-76835950D01*
X78521250Y-59213750D02*
X78521250Y-40163750D01*
X78521250Y-21113750D02*
X78521250Y-19685950D01*
X63896875Y-7372950D02*
X62000800Y-5476875D01*
X78521250Y-19685950D02*
X77091550Y-18256250D01*
X63896875Y-12700000D02*
X63896875Y-7372950D01*
X77091550Y-18256250D02*
X69453125Y-18256250D01*
X62000800Y-5476875D02*
X60198000Y-5476875D01*
X69453125Y-18256250D02*
X63896875Y-12700000D01*
X116260149Y-19324849D02*
X97932351Y-19324849D01*
X97571250Y-19685950D02*
X97571250Y-21113750D01*
X116621250Y-19685950D02*
X116260149Y-19324849D01*
X97932351Y-19324849D02*
X97571250Y-19685950D01*
X116621250Y-21113750D02*
X116621250Y-19685950D01*
X97932351Y-95524849D02*
X97571250Y-95885950D01*
X97571250Y-95885950D02*
X97571250Y-97313750D01*
X116260149Y-95524849D02*
X97932351Y-95524849D01*
X116621250Y-95885950D02*
X116260149Y-95524849D01*
X116621250Y-97313750D02*
X116621250Y-95885950D01*
X97571250Y-57785950D02*
X97571250Y-59213750D01*
X97932351Y-57424849D02*
X97571250Y-57785950D01*
X116260149Y-57424849D02*
X97932351Y-57424849D01*
X116621250Y-57785950D02*
X116260149Y-57424849D01*
X116621250Y-59213750D02*
X116621250Y-57785950D01*
X97571250Y-38735950D02*
X97571250Y-40163750D01*
X116260149Y-38374849D02*
X97932351Y-38374849D01*
X116621250Y-38735950D02*
X116260149Y-38374849D01*
X97932351Y-38374849D02*
X97571250Y-38735950D01*
X116621250Y-40163750D02*
X116621250Y-38735950D01*
X116621250Y-25716844D02*
X116621250Y-21113750D01*
X116621250Y-40163750D02*
X116621250Y-25716844D01*
X97571250Y-114935950D02*
X97571250Y-97313750D01*
X97571250Y-116363750D02*
X97571250Y-114935950D01*
X97571250Y-97313750D02*
X97571250Y-78263750D01*
X97571250Y-76835950D02*
X97571250Y-59213750D01*
X97571250Y-78263750D02*
X97571250Y-76835950D01*
X116621250Y-59213750D02*
X116621250Y-40163750D01*
X97571250Y-19685950D02*
X93363425Y-15478125D01*
X93363425Y-15478125D02*
X76200000Y-15478125D01*
X60356750Y-15478125D02*
X60198000Y-15636875D01*
X63896875Y-15478125D02*
X60356750Y-15478125D01*
X136032351Y-19324849D02*
X135671250Y-19685950D01*
X154360149Y-19324849D02*
X136032351Y-19324849D01*
X135671250Y-19685950D02*
X135671250Y-21113750D01*
X154721250Y-19685950D02*
X154360149Y-19324849D01*
X154721250Y-21113750D02*
X154721250Y-19685950D01*
X136032351Y-38374849D02*
X135671250Y-38735950D01*
X154360149Y-38374849D02*
X136032351Y-38374849D01*
X154721250Y-38735950D02*
X154360149Y-38374849D01*
X135671250Y-38735950D02*
X135671250Y-40163750D01*
X154721250Y-40163750D02*
X154721250Y-38735950D01*
X138052500Y-114935950D02*
X138052500Y-116363750D01*
X161503899Y-114574849D02*
X138413601Y-114574849D01*
X138413601Y-114574849D02*
X138052500Y-114935950D01*
X161865000Y-114935950D02*
X161503899Y-114574849D01*
X161865000Y-116363750D02*
X161865000Y-114935950D01*
X154721250Y-40163750D02*
X154721250Y-21113750D01*
X144267800Y-78263750D02*
X142815000Y-78263750D01*
X147577500Y-81573450D02*
X144267800Y-78263750D01*
X147577500Y-97313750D02*
X147577500Y-81573450D01*
X149030300Y-97313750D02*
X147577500Y-97313750D01*
X161865000Y-110148450D02*
X149030300Y-97313750D01*
X161865000Y-116363750D02*
X161865000Y-110148450D01*
X135671250Y-53023450D02*
X135671250Y-41591550D01*
X135671250Y-41591550D02*
X135671250Y-40163750D01*
X140433750Y-57785950D02*
X135671250Y-53023450D01*
X140433750Y-59213750D02*
X140433750Y-57785950D01*
X141886550Y-59213750D02*
X140433750Y-59213750D01*
X142815000Y-60142200D02*
X141886550Y-59213750D01*
X142815000Y-78263750D02*
X142815000Y-60142200D01*
X135671250Y-19685950D02*
X132257175Y-16271875D01*
X132257175Y-16271875D02*
X95250000Y-16271875D01*
X63182500Y-18176875D02*
X60198000Y-18176875D01*
X65087500Y-16271875D02*
X63182500Y-18176875D01*
X173771250Y-19685950D02*
X173771250Y-21113750D01*
X174132351Y-19324849D02*
X173771250Y-19685950D01*
X192460149Y-19324849D02*
X174132351Y-19324849D01*
X192821250Y-19685950D02*
X192460149Y-19324849D01*
X192821250Y-21113750D02*
X192821250Y-19685950D01*
X164607351Y-57424849D02*
X164246250Y-57785950D01*
X164246250Y-57785950D02*
X164246250Y-59213750D01*
X182935149Y-57424849D02*
X164607351Y-57424849D01*
X183296250Y-57785950D02*
X182935149Y-57424849D01*
X183296250Y-59213750D02*
X183296250Y-57785950D01*
X173771250Y-38735950D02*
X173771250Y-40163750D01*
X174132351Y-38374849D02*
X173771250Y-38735950D01*
X192460149Y-38374849D02*
X174132351Y-38374849D01*
X192821250Y-38735950D02*
X192460149Y-38374849D01*
X197222649Y-95524849D02*
X178894851Y-95524849D01*
X197583750Y-95885950D02*
X197222649Y-95524849D01*
X178533750Y-95885950D02*
X178533750Y-97313750D01*
X178894851Y-95524849D02*
X178533750Y-95885950D01*
X169008750Y-76835950D02*
X169008750Y-78263750D01*
X169369851Y-76474849D02*
X169008750Y-76835950D01*
X187697649Y-76474849D02*
X169369851Y-76474849D01*
X188058750Y-76835950D02*
X187697649Y-76474849D01*
X192821250Y-38735950D02*
X192821250Y-21113750D01*
X192821250Y-40163750D02*
X192821250Y-38735950D01*
X178533750Y-98741550D02*
X178533750Y-97313750D01*
X178533750Y-107792200D02*
X178533750Y-98741550D01*
X185677500Y-114935950D02*
X178533750Y-107792200D01*
X185677500Y-116363750D02*
X185677500Y-114935950D01*
X188058750Y-86360950D02*
X188058750Y-79691550D01*
X197583750Y-95885950D02*
X188058750Y-86360950D01*
X188058750Y-79691550D02*
X188058750Y-78263750D01*
X197583750Y-97313750D02*
X197583750Y-95885950D01*
X183296250Y-60641550D02*
X183296250Y-59213750D01*
X183296250Y-72073450D02*
X183296250Y-60641550D01*
X188058750Y-76835950D02*
X183296250Y-72073450D01*
X188058750Y-78263750D02*
X188058750Y-76835950D01*
X192821250Y-51141550D02*
X192821250Y-41591550D01*
X184749050Y-59213750D02*
X192821250Y-51141550D01*
X192821250Y-41591550D02*
X192821250Y-40163750D01*
X183296250Y-59213750D02*
X184749050Y-59213750D01*
X197583750Y-101936875D02*
X197583750Y-97313750D01*
X260447800Y-111125000D02*
X206771875Y-111125000D01*
X264258750Y-116363750D02*
X264258750Y-114935950D01*
X206771875Y-111125000D02*
X197583750Y-101936875D01*
X264258750Y-114935950D02*
X260447800Y-111125000D01*
X173771250Y-19685950D02*
X170754050Y-16668750D01*
X170754050Y-16668750D02*
X133746875Y-16668750D01*
X62626875Y-20716875D02*
X60198000Y-20716875D01*
X66278125Y-17065625D02*
X62626875Y-20716875D01*
X211871250Y-19685950D02*
X211871250Y-21113750D01*
X212232351Y-19324849D02*
X211871250Y-19685950D01*
X230560149Y-19324849D02*
X212232351Y-19324849D01*
X230921250Y-19685950D02*
X230560149Y-19324849D01*
X230921250Y-21113750D02*
X230921250Y-19685950D01*
X211871250Y-38735950D02*
X211871250Y-40163750D01*
X212232351Y-38374849D02*
X211871250Y-38735950D01*
X230560149Y-38374849D02*
X212232351Y-38374849D01*
X230921250Y-38735950D02*
X230560149Y-38374849D01*
X230921250Y-40163750D02*
X230921250Y-38735950D01*
X202707351Y-57424849D02*
X202346250Y-57785950D01*
X221035149Y-57424849D02*
X202707351Y-57424849D01*
X202346250Y-57785950D02*
X202346250Y-59213750D01*
X221396250Y-57785950D02*
X221035149Y-57424849D01*
X221396250Y-59213750D02*
X221396250Y-57785950D01*
X216633750Y-95885950D02*
X216633750Y-97313750D01*
X216994851Y-95524849D02*
X216633750Y-95885950D01*
X235322649Y-95524849D02*
X216994851Y-95524849D01*
X235683750Y-95885950D02*
X235322649Y-95524849D01*
X226158750Y-79691550D02*
X226158750Y-78263750D01*
X226158750Y-86360950D02*
X226158750Y-79691550D01*
X235683750Y-95885950D02*
X226158750Y-86360950D01*
X235683750Y-97313750D02*
X235683750Y-95885950D01*
X221396250Y-60641550D02*
X221396250Y-59213750D01*
X226158750Y-76835950D02*
X221396250Y-72073450D01*
X221396250Y-72073450D02*
X221396250Y-60641550D01*
X207108750Y-76835950D02*
X207108750Y-78263750D01*
X207469851Y-76474849D02*
X207108750Y-76835950D01*
X225797649Y-76474849D02*
X207469851Y-76474849D01*
X226158750Y-76835950D02*
X225797649Y-76474849D01*
X226158750Y-78263750D02*
X226158750Y-76835950D01*
X230921250Y-41591550D02*
X230921250Y-40163750D01*
X230921250Y-51141550D02*
X230921250Y-41591550D01*
X222849050Y-59213750D02*
X230921250Y-51141550D01*
X221396250Y-59213750D02*
X222849050Y-59213750D01*
X60198000Y-23256875D02*
X60198000Y-23288625D01*
X62000800Y-23256875D02*
X62706250Y-23962325D01*
X60198000Y-23256875D02*
X62000800Y-23256875D01*
X62706250Y-23962325D02*
X62706250Y-25400000D01*
X62706250Y-25400000D02*
X62706250Y-25796875D01*
X62706250Y-25796875D02*
X69056250Y-32146875D01*
X69056250Y-32146875D02*
X69056250Y-34131250D01*
X230921250Y-40163750D02*
X230981250Y-34131250D01*
X230981250Y-34131250D02*
X230921250Y-21113750D01*
X249971250Y-19685950D02*
X249971250Y-21113750D01*
X268660149Y-19324849D02*
X250332351Y-19324849D01*
X250332351Y-19324849D02*
X249971250Y-19685950D01*
X269021250Y-19685950D02*
X268660149Y-19324849D01*
X269021250Y-21113750D02*
X269021250Y-19685950D01*
X254733750Y-95885950D02*
X254733750Y-97313750D01*
X255094851Y-95524849D02*
X254733750Y-95885950D01*
X273422649Y-95524849D02*
X255094851Y-95524849D01*
X273783750Y-95885950D02*
X273422649Y-95524849D01*
X245208750Y-76835950D02*
X245208750Y-78263750D01*
X263897649Y-76474849D02*
X245569851Y-76474849D01*
X245569851Y-76474849D02*
X245208750Y-76835950D01*
X264258750Y-76835950D02*
X263897649Y-76474849D01*
X240807351Y-57424849D02*
X240446250Y-57785950D01*
X240446250Y-57785950D02*
X240446250Y-59213750D01*
X259135149Y-57424849D02*
X240807351Y-57424849D01*
X259496250Y-57785950D02*
X259135149Y-57424849D01*
X259496250Y-59213750D02*
X259496250Y-57785950D01*
X249971250Y-38735950D02*
X249971250Y-40163750D01*
X268660149Y-38374849D02*
X250332351Y-38374849D01*
X250332351Y-38374849D02*
X249971250Y-38735950D01*
X269021250Y-38735950D02*
X268660149Y-38374849D01*
X269021250Y-40163750D02*
X269021250Y-38735950D01*
X269021250Y-40163750D02*
X269021250Y-21113750D01*
X269021250Y-41591550D02*
X269021250Y-40163750D01*
X269021250Y-51141550D02*
X269021250Y-41591550D01*
X260949050Y-59213750D02*
X269021250Y-51141550D01*
X259496250Y-59213750D02*
X260949050Y-59213750D01*
X259496250Y-72073450D02*
X259496250Y-60641550D01*
X264258750Y-76835950D02*
X259496250Y-72073450D01*
X259496250Y-60641550D02*
X259496250Y-59213750D01*
X264258750Y-78263750D02*
X264258750Y-76835950D01*
X264258750Y-86360950D02*
X264258750Y-79691550D01*
X264258750Y-79691550D02*
X264258750Y-78263750D01*
X273783750Y-95885950D02*
X264258750Y-86360950D01*
X273783750Y-97313750D02*
X273783750Y-95885950D01*
X68262500Y-32058575D02*
X68262500Y-34925000D01*
X60198000Y-25796875D02*
X62000800Y-25796875D01*
X62000800Y-25796875D02*
X68262500Y-32058575D01*
X306760149Y-19324849D02*
X288432351Y-19324849D01*
X288432351Y-19324849D02*
X288071250Y-19685950D01*
X307121250Y-19685950D02*
X306760149Y-19324849D01*
X288071250Y-19685950D02*
X288071250Y-21113750D01*
X307121250Y-21113750D02*
X307121250Y-19685950D01*
X292833750Y-95885950D02*
X292833750Y-97313750D01*
X293194851Y-95524849D02*
X292833750Y-95885950D01*
X311522649Y-95524849D02*
X293194851Y-95524849D01*
X311883750Y-95885950D02*
X311522649Y-95524849D01*
X288071250Y-38735950D02*
X288071250Y-40163750D01*
X288432351Y-38374849D02*
X288071250Y-38735950D01*
X307121250Y-38735950D02*
X306760149Y-38374849D01*
X306760149Y-38374849D02*
X288432351Y-38374849D01*
X278546250Y-57785950D02*
X278546250Y-59213750D01*
X297235149Y-57424849D02*
X278907351Y-57424849D01*
X278907351Y-57424849D02*
X278546250Y-57785950D01*
X297596250Y-57785950D02*
X297235149Y-57424849D01*
X283308750Y-76835950D02*
X283308750Y-78263750D01*
X301997649Y-76474849D02*
X283669851Y-76474849D01*
X302358750Y-76835950D02*
X301997649Y-76474849D01*
X283669851Y-76474849D02*
X283308750Y-76835950D01*
X297596250Y-60641550D02*
X297596250Y-59213750D01*
X297596250Y-72073450D02*
X297596250Y-60641550D01*
X302358750Y-76835950D02*
X297596250Y-72073450D01*
X302358750Y-78263750D02*
X302358750Y-76835950D01*
X288071250Y-41591550D02*
X288071250Y-40163750D01*
X288071250Y-48260950D02*
X288071250Y-41591550D01*
X297596250Y-57785950D02*
X288071250Y-48260950D01*
X297596250Y-59213750D02*
X297596250Y-57785950D01*
X307121250Y-40163750D02*
X307121250Y-38735950D01*
X302358750Y-86360950D02*
X302358750Y-79691550D01*
X311883750Y-95885950D02*
X302358750Y-86360950D01*
X302358750Y-79691550D02*
X302358750Y-78263750D01*
X311883750Y-97313750D02*
X311883750Y-95885950D01*
X67071875Y-33407950D02*
X67071875Y-35448925D01*
X60198000Y-28336875D02*
X62000800Y-28336875D01*
X62000800Y-28336875D02*
X67071875Y-33407950D01*
X307121250Y-38735950D02*
X307181250Y-35718750D01*
X307181250Y-35718750D02*
X307121250Y-21113750D01*
X326171250Y-19685950D02*
X326171250Y-21113750D01*
X326532351Y-19324849D02*
X326171250Y-19685950D01*
X344860149Y-19324849D02*
X326532351Y-19324849D01*
X345221250Y-19685950D02*
X344860149Y-19324849D01*
X345221250Y-21113750D02*
X345221250Y-19685950D01*
X321769851Y-76474849D02*
X321408750Y-76835950D01*
X340097649Y-76474849D02*
X321769851Y-76474849D01*
X340458750Y-76835950D02*
X340097649Y-76474849D01*
X321408750Y-76835950D02*
X321408750Y-78263750D01*
X316646250Y-57785950D02*
X316646250Y-59213750D01*
X317007351Y-57424849D02*
X316646250Y-57785950D01*
X335335149Y-57424849D02*
X317007351Y-57424849D01*
X335696250Y-57785950D02*
X335335149Y-57424849D01*
X326171250Y-38735950D02*
X326171250Y-40163750D01*
X326532351Y-38374849D02*
X326171250Y-38735950D01*
X344860149Y-38374849D02*
X326532351Y-38374849D01*
X345221250Y-38735950D02*
X344860149Y-38374849D01*
X321769851Y-114574849D02*
X321408750Y-114935950D01*
X321408750Y-114935950D02*
X321408750Y-116363750D01*
X340458750Y-114935950D02*
X340097649Y-114574849D01*
X340097649Y-114574849D02*
X321769851Y-114574849D01*
X330933750Y-95885950D02*
X330933750Y-97313750D01*
X331294851Y-95524849D02*
X330933750Y-95885950D01*
X349622649Y-95524849D02*
X331294851Y-95524849D01*
X349983750Y-95885950D02*
X349622649Y-95524849D01*
X340458750Y-79691550D02*
X340458750Y-78263750D01*
X340458750Y-86360950D02*
X340458750Y-79691550D01*
X349983750Y-95885950D02*
X340458750Y-86360950D01*
X349983750Y-97313750D02*
X349983750Y-95885950D01*
X330933750Y-98741550D02*
X330933750Y-97313750D01*
X330933750Y-105410950D02*
X330933750Y-98741550D01*
X340458750Y-114935950D02*
X330933750Y-105410950D01*
X340458750Y-116363750D02*
X340458750Y-114935950D01*
X335696250Y-60641550D02*
X335696250Y-59213750D01*
X335696250Y-72073450D02*
X335696250Y-60641550D01*
X340458750Y-76835950D02*
X335696250Y-72073450D01*
X340458750Y-78263750D02*
X340458750Y-76835950D01*
X326171250Y-41591550D02*
X326171250Y-40163750D01*
X326171250Y-48260950D02*
X326171250Y-41591550D01*
X335696250Y-57785950D02*
X326171250Y-48260950D01*
X335696250Y-59213750D02*
X335696250Y-57785950D01*
X345221250Y-38735950D02*
X345221250Y-21113750D01*
X345221250Y-40163750D02*
X345221250Y-38735950D01*
X316646250Y-57785950D02*
X312438425Y-53578125D01*
X312438425Y-53578125D02*
X312340625Y-53578125D01*
X82550000Y-51990625D02*
X80962500Y-50403125D01*
X80962500Y-50403125D02*
X80962500Y-32940625D01*
X60277375Y-30956250D02*
X60198000Y-30876875D01*
X63500000Y-30956250D02*
X60277375Y-30956250D01*
X364271250Y-19685950D02*
X364271250Y-21113750D01*
X364632351Y-19324849D02*
X364271250Y-19685950D01*
X382960149Y-19324849D02*
X364632351Y-19324849D01*
X383321250Y-19685950D02*
X382960149Y-19324849D01*
X383321250Y-21113750D02*
X383321250Y-19685950D01*
X366561351Y-36445849D02*
X364271250Y-38735950D01*
X390556149Y-36445849D02*
X366561351Y-36445849D01*
X392846250Y-38735950D02*
X390556149Y-36445849D01*
X392846250Y-40163750D02*
X392846250Y-38735950D01*
X361890000Y-114935950D02*
X361890000Y-116363750D01*
X362251101Y-114574849D02*
X361890000Y-114935950D01*
X382960149Y-114574849D02*
X362251101Y-114574849D01*
X383321250Y-114935950D02*
X382960149Y-114574849D01*
X383321250Y-116363750D02*
X383321250Y-114935950D01*
X387844675Y-74215625D02*
X361553125Y-74215625D01*
X390465000Y-78263750D02*
X390465000Y-76835950D01*
X359508750Y-76260000D02*
X359508750Y-78263750D01*
X361553125Y-74215625D02*
X359508750Y-76260000D01*
X390465000Y-76835950D02*
X387844675Y-74215625D01*
X359508750Y-79691550D02*
X359508750Y-78263750D01*
X359508750Y-86240656D02*
X359508750Y-79691550D01*
X374173101Y-93881551D02*
X367149645Y-93881551D01*
X376177500Y-95885950D02*
X374173101Y-93881551D01*
X367149645Y-93881551D02*
X359508750Y-86240656D01*
X376177500Y-97313750D02*
X376177500Y-95885950D01*
X377630300Y-97313750D02*
X376177500Y-97313750D01*
X383321250Y-103004700D02*
X377630300Y-97313750D01*
X383321250Y-116363750D02*
X383321250Y-103004700D01*
X364271250Y-38735950D02*
X364271250Y-21113750D01*
X364271250Y-40163750D02*
X364271250Y-38735950D01*
X354746250Y-57785950D02*
X354746250Y-59213750D01*
X373435149Y-57424849D02*
X355107351Y-57424849D01*
X373796250Y-57785950D02*
X373435149Y-57424849D01*
X355107351Y-57424849D02*
X354746250Y-57785950D01*
X364271250Y-41591550D02*
X364271250Y-40163750D01*
X373796250Y-57785950D02*
X364271250Y-48260950D01*
X364271250Y-48260950D02*
X364271250Y-41591550D01*
X373796250Y-59213750D02*
X373796250Y-57785950D01*
X354746250Y-67408750D02*
X354746250Y-59213750D01*
X361553125Y-74215625D02*
X354746250Y-67408750D01*
X354746250Y-59213750D02*
X354746250Y-56296250D01*
X354746250Y-56296250D02*
X353218750Y-54768750D01*
X61515625Y-51593750D02*
X61515625Y-44450000D01*
X60198000Y-35194875D02*
X60721875Y-35718750D01*
X60198000Y-33416875D02*
X60198000Y-35194875D01*
X397969851Y-57424849D02*
X397608750Y-57785950D01*
X421060149Y-57424849D02*
X397969851Y-57424849D01*
X397608750Y-57785950D02*
X397608750Y-59213750D01*
X421421250Y-57785950D02*
X421060149Y-57424849D01*
X421421250Y-59213750D02*
X421421250Y-57785950D01*
X402732351Y-95524849D02*
X402371250Y-95885950D01*
X402371250Y-95885950D02*
X402371250Y-97313750D01*
X421421250Y-95885950D02*
X421060149Y-95524849D01*
X421060149Y-95524849D02*
X402732351Y-95524849D01*
X421421250Y-97313750D02*
X421421250Y-95885950D01*
X402371250Y-114935950D02*
X402371250Y-116363750D01*
X402732351Y-114574849D02*
X402371250Y-114935950D01*
X421060149Y-114574849D02*
X402732351Y-114574849D01*
X421421250Y-114935950D02*
X421060149Y-114574849D01*
X421421250Y-116363750D02*
X421421250Y-114935950D01*
X402371250Y-116363750D02*
X402371250Y-97313750D01*
X421421250Y-97313750D02*
X421421250Y-78263750D01*
X421421250Y-78263750D02*
X421421250Y-59213750D01*
X421421250Y-59213750D02*
X421421250Y-40163750D01*
X421421250Y-40163750D02*
X421421250Y-21113750D01*
X402371250Y-19685950D02*
X402371250Y-21113750D01*
X402732351Y-19324849D02*
X402371250Y-19685950D01*
X421060149Y-19324849D02*
X402732351Y-19324849D01*
X421421250Y-19685950D02*
X421060149Y-19324849D01*
X421421250Y-21113750D02*
X421421250Y-19685950D01*
X58248425Y-36512500D02*
X58340625Y-36512500D01*
X55880000Y-35321875D02*
X57057800Y-35321875D01*
X57057800Y-35321875D02*
X58248425Y-36512500D01*
X397608750Y-57785950D02*
X395385300Y-55562500D01*
X395385300Y-55562500D02*
X395287500Y-55562500D01*
D17*
X58323000Y-10556875D02*
X60198000Y-10556875D01*
X43277000Y-8016875D02*
X45817000Y-10556875D01*
X45817000Y-10556875D02*
X58323000Y-10556875D01*
X41402000Y-8016875D02*
X43277000Y-8016875D01*
X58323000Y-13096875D02*
X55783000Y-10556875D01*
X55783000Y-10556875D02*
X45817000Y-10556875D01*
X60198000Y-13096875D02*
X58323000Y-13096875D01*
M02*
