M48
; DRILL file {KiCad (5.1.5)-3} date 2/9/2020 6:49:33 PM
; FORMAT={-:-/ absolute / inch / decimal}
; #@! TF.CreationDate,2020-02-09T18:49:33-08:00
; #@! TF.GenerationSoftware,Kicad,Pcbnew,(5.1.5)-3
; #@! TF.FileFunction,NonPlated,1,2,NPTH
FMAT,2
INCH
T1C0.0670
T2C0.1181
T3C0.1200
T4C0.1570
%
G90
G05
T1
X11.2687Y-2.5312
X11.6687Y-2.5312
X7.1437Y-1.7812
X7.5438Y-1.7812
X2.2687Y-4.7812
X2.6687Y-4.7812
X4.9875Y-4.7812
X5.3875Y-4.7812
X2.6437Y-4.0312
X3.0437Y-4.0312
X1.8938Y-1.7812
X2.2937Y-1.7812
X7.7062Y-3.2812
X8.1062Y-3.2812
X8.6437Y-1.7812
X9.0437Y-1.7812
X13.8Y-4.7812
X14.2Y-4.7812
X15.3937Y-4.7812
X15.7937Y-4.7812
X13.7062Y-3.2812
X14.1062Y-3.2812
X16.1438Y-3.2812
X16.5437Y-3.2812
X14.925Y-3.2812
X15.325Y-3.2812
X16.1438Y-1.7812
X16.5437Y-1.7812
X11.8312Y-4.0312
X12.2312Y-4.0312
X6.3937Y-1.7812
X6.7938Y-1.7812
X10.5187Y-2.5312
X10.9187Y-2.5312
X7.3312Y-4.0312
X7.7313Y-4.0312
X3.3937Y-4.7812
X3.7937Y-4.7812
X3.3937Y-1.7812
X3.7937Y-1.7812
X2.6437Y-1.7812
X3.0437Y-1.7812
X2.6437Y-1.0312
X3.0437Y-1.0312
X9.7687Y-2.5312
X10.1687Y-2.5312
X8.2687Y-2.5312
X8.6687Y-2.5312
X12.9562Y-3.2812
X13.3562Y-3.2812
X13.8937Y-1.7812
X14.2937Y-1.7812
X12.7687Y-2.5312
X13.1687Y-2.5312
X15.3937Y-4.0312
X15.7937Y-4.0312
X9.9562Y-3.2812
X10.3562Y-3.2812
X13.1437Y-1.0312
X13.5437Y-1.0312
X6.0187Y-2.5312
X6.4188Y-2.5312
X12.3937Y-1.0312
X12.7937Y-1.0312
X7.1437Y-1.0312
X7.5438Y-1.0312
X4.8937Y-1.0312
X5.2938Y-1.0312
X3.3937Y-1.0312
X3.7937Y-1.0312
X4.1437Y-4.0312
X4.5438Y-4.0312
X3.3937Y-2.5312
X3.7937Y-2.5312
X9.3937Y-1.7812
X9.7937Y-1.7812
X10.1437Y-1.7812
X10.5437Y-1.7812
X12.5812Y-4.0312
X12.9812Y-4.0312
X14.6437Y-1.0312
X15.0437Y-1.0312
X15.3937Y-1.0312
X15.7937Y-1.0312
X12.0187Y-2.5312
X12.4187Y-2.5312
X10.3312Y-4.0312
X10.7312Y-4.0312
X11.4562Y-3.2812
X11.8562Y-3.2812
X5.3625Y-4.0312
X5.7625Y-4.0312
X9.2062Y-3.2812
X9.6062Y-3.2812
X6.2062Y-3.2812
X6.6063Y-3.2812
X1.8938Y-2.5312
X2.2937Y-2.5312
X4.1437Y-2.5312
X4.5438Y-2.5312
X3.3937Y-4.0312
X3.7937Y-4.0312
X9.9562Y-4.7812
X10.3562Y-4.7812
X8.8312Y-4.0312
X9.2312Y-4.0312
X9.0187Y-2.5312
X9.4187Y-2.5312
X13.3312Y-4.0312
X13.7312Y-4.0312
X16.1438Y-4.7812
X16.5437Y-4.7812
X14.3625Y-4.0312
X14.7625Y-4.0312
X16.1438Y-1.0312
X16.5437Y-1.0312
X12.2062Y-3.2812
X12.6062Y-3.2812
X9.5812Y-4.0312
X9.9812Y-4.0312
X5.6437Y-1.7812
X6.0438Y-1.7812
X10.7062Y-3.2812
X11.1062Y-3.2812
X6.7687Y-2.5312
X7.1688Y-2.5312
X10.8937Y-1.0312
X11.2937Y-1.0312
X6.3937Y-1.0312
X6.7938Y-1.0312
X1.8938Y-3.2812
X2.2937Y-3.2812
X4.1437Y-1.7812
X4.5438Y-1.7812
X4.1437Y-1.0312
X4.5438Y-1.0312
X8.4562Y-3.2812
X8.8562Y-3.2812
X8.6437Y-1.0312
X9.0437Y-1.0312
X8.0812Y-4.0312
X8.4812Y-4.0312
X12.2062Y-4.7812
X12.6062Y-4.7812
X16.1438Y-4.0312
X16.5437Y-4.0312
X13.8937Y-1.0312
X14.2937Y-1.0312
X15.2062Y-2.5312
X15.6062Y-2.5312
X11.6437Y-1.0312
X12.0437Y-1.0312
X5.0812Y-2.5312
X5.4813Y-2.5312
X11.0812Y-4.0312
X11.4812Y-4.0312
X6.9562Y-3.2812
X7.3563Y-3.2812
X12.3937Y-1.7812
X12.7937Y-1.7812
X5.6437Y-1.0312
X6.0438Y-1.0312
X2.6437Y-3.2812
X3.0437Y-3.2812
X2.6437Y-2.5312
X3.0437Y-2.5312
X7.8937Y-1.0312
X8.2937Y-1.0312
X9.3937Y-1.0312
X9.7937Y-1.0312
X6.8625Y-4.7812
X7.2625Y-4.7812
X12.9562Y-4.7812
X13.3562Y-4.7812
X16.1438Y-2.5312
X16.5437Y-2.5312
X15.0187Y-1.7812
X15.4187Y-1.7812
X10.8937Y-1.7812
X11.2937Y-1.7812
X6.5812Y-4.0312
X6.9813Y-4.0312
X13.1437Y-1.7812
X13.5437Y-1.7812
X5.925Y-4.7812
X6.325Y-4.7812
X4.8937Y-1.7812
X5.2938Y-1.7812
X1.8938Y-4.0312
X2.2937Y-4.0312
X3.3937Y-3.2812
X3.7937Y-3.2812
X7.5187Y-2.5312
X7.9188Y-2.5312
X7.8937Y-1.7812
X8.2937Y-1.7812
X10.1437Y-1.0312
X10.5437Y-1.0312
X13.5187Y-2.5312
X13.9187Y-2.5312
X14.2687Y-2.5312
X14.6687Y-2.5312
X14.6437Y-4.7812
X15.0437Y-4.7812
X11.6437Y-1.7812
X12.0437Y-1.7812
X5.175Y-3.2812
X5.575Y-3.2812
T2
X9.6312Y-3.9312
X9.8812Y-3.8312
X5.6937Y-1.6812
X5.9437Y-1.5813
X10.7562Y-3.1812
X11.0062Y-3.0812
X6.8187Y-2.4312
X7.0687Y-2.3312
X10.9437Y-0.9313
X11.1937Y-0.8312
X6.4437Y-0.9313
X6.6937Y-0.8312
X1.9437Y-3.1812
X2.1938Y-3.0812
X4.1937Y-1.6812
X4.4437Y-1.5813
X4.1937Y-0.9313
X4.4437Y-0.8312
X8.5062Y-3.1812
X8.7562Y-3.0812
X8.6937Y-0.9313
X8.9437Y-0.8312
X8.1312Y-3.9312
X8.3812Y-3.8312
X12.2562Y-4.6812
X12.5062Y-4.5812
X16.1937Y-3.9312
X16.4437Y-3.8312
X13.9437Y-0.9313
X14.1937Y-0.8312
X15.2562Y-2.4312
X15.5062Y-2.3312
X11.6937Y-0.9313
X11.9437Y-0.8312
X5.1312Y-2.4312
X5.3812Y-2.3312
X11.1312Y-3.9312
X11.3812Y-3.8312
X7.0062Y-3.1812
X7.2562Y-3.0812
X12.4437Y-1.6812
X12.6937Y-1.5813
X5.6937Y-0.9313
X5.9437Y-0.8312
X2.6938Y-3.1812
X2.9438Y-3.0812
X2.6938Y-2.4312
X2.9438Y-2.3312
X7.9437Y-0.9313
X8.1937Y-0.8312
X9.4437Y-0.9313
X9.6937Y-0.8312
X6.9125Y-4.6812
X7.1625Y-4.5812
X13.0062Y-4.6812
X13.2562Y-4.5812
X16.1937Y-2.4312
X16.4437Y-2.3312
X15.0687Y-1.6812
X15.3187Y-1.5813
X10.9437Y-1.6812
X11.1937Y-1.5813
X6.6312Y-3.9312
X6.8812Y-3.8312
X13.1937Y-1.6812
X13.4437Y-1.5813
X5.975Y-4.6812
X6.225Y-4.5812
X4.9437Y-1.6812
X5.1937Y-1.5813
X1.9437Y-3.9312
X2.1938Y-3.8312
X3.4438Y-3.1812
X3.6938Y-3.0812
X7.5687Y-2.4312
X7.8187Y-2.3312
X7.9437Y-1.6812
X8.1937Y-1.5813
X10.1937Y-0.9313
X10.4437Y-0.8312
X13.5687Y-2.4312
X13.8187Y-2.3312
X14.3187Y-2.4312
X14.5687Y-2.3312
X14.6937Y-4.6812
X14.9437Y-4.5812
X11.6937Y-1.6812
X11.9437Y-1.5813
X5.225Y-3.1812
X5.475Y-3.0812
X11.3187Y-2.4312
X11.5687Y-2.3312
X7.1937Y-1.6812
X7.4437Y-1.5813
X2.3188Y-4.6812
X2.5688Y-4.5812
X5.0375Y-4.6812
X5.2875Y-4.5812
X2.6938Y-3.9312
X2.9438Y-3.8312
X1.9437Y-1.6812
X2.1938Y-1.5813
X7.7562Y-3.1812
X8.0062Y-3.0812
X8.6937Y-1.6812
X8.9437Y-1.5813
X13.85Y-4.6812
X14.1Y-4.5812
X15.4437Y-4.6812
X15.6937Y-4.5812
X13.7562Y-3.1812
X14.0062Y-3.0812
X16.1937Y-3.1812
X16.4437Y-3.0812
X14.975Y-3.1812
X15.225Y-3.0812
X16.1937Y-1.6812
X16.4437Y-1.5813
X11.8812Y-3.9312
X12.1312Y-3.8312
X6.4437Y-1.6812
X6.6937Y-1.5813
X10.5687Y-2.4312
X10.8187Y-2.3312
X7.3812Y-3.9312
X7.6312Y-3.8312
X3.4438Y-4.6812
X3.6938Y-4.5812
X3.4438Y-1.6812
X3.6938Y-1.5813
X2.6938Y-1.6812
X2.9438Y-1.5813
X2.6938Y-0.9313
X2.9438Y-0.8312
X9.8187Y-2.4312
X10.0687Y-2.3312
X8.3187Y-2.4312
X8.5687Y-2.3312
X13.0062Y-3.1812
X13.2562Y-3.0812
X13.9437Y-1.6812
X14.1937Y-1.5813
X12.8187Y-2.4312
X13.0687Y-2.3312
X15.4437Y-3.9312
X15.6937Y-3.8312
X10.0062Y-3.1812
X10.2562Y-3.0812
X13.1937Y-0.9313
X13.4437Y-0.8312
X6.0687Y-2.4312
X6.3187Y-2.3312
X12.4437Y-0.9313
X12.6937Y-0.8312
X7.1937Y-0.9313
X7.4437Y-0.8312
X4.9437Y-0.9313
X5.1937Y-0.8312
X3.4438Y-0.9313
X3.6938Y-0.8312
X4.1937Y-3.9312
X4.4437Y-3.8312
X3.4438Y-2.4312
X3.6938Y-2.3312
X9.4437Y-1.6812
X9.6937Y-1.5813
X10.1937Y-1.6812
X10.4437Y-1.5813
X12.6312Y-3.9312
X12.8812Y-3.8312
X14.6937Y-0.9313
X14.9437Y-0.8312
X15.4437Y-0.9313
X15.6937Y-0.8312
X12.0687Y-2.4312
X12.3187Y-2.3312
X10.3812Y-3.9312
X10.6312Y-3.8312
X11.5062Y-3.1812
X11.7562Y-3.0812
X5.4125Y-3.9312
X5.6625Y-3.8312
X9.2562Y-3.1812
X9.5062Y-3.0812
X6.2562Y-3.1812
X6.5062Y-3.0812
X1.9437Y-2.4312
X2.1938Y-2.3312
X4.1937Y-2.4312
X4.4437Y-2.3312
X3.4438Y-3.9312
X3.6938Y-3.8312
X10.0062Y-4.6812
X10.2562Y-4.5812
X8.8812Y-3.9312
X9.1312Y-3.8312
X9.0687Y-2.4312
X9.3187Y-2.3312
X13.3812Y-3.9312
X13.6312Y-3.8312
X16.1937Y-4.6812
X16.4437Y-4.5812
X14.4125Y-3.9312
X14.6625Y-3.8312
X16.1937Y-0.9313
X16.4437Y-0.8312
X12.2562Y-3.1812
X12.5062Y-3.0812
T3
X5.094Y-3.7563
X6.031Y-3.7563
X2.0002Y-4.5062
X2.9373Y-4.5062
X14.6565Y-3.0063
X15.5935Y-3.0063
X14.7502Y-1.5062
X15.6873Y-1.5062
X7.9062Y-4.5062
X11.6562Y-4.5062
T4
X11.0938Y-1.0312
X6.5938Y-1.0312
X2.0938Y-3.2812
X4.3438Y-1.7812
X4.3438Y-1.0312
X8.6562Y-3.2812
X8.8438Y-1.0312
X8.2812Y-4.0312
X12.4062Y-4.7812
X16.3438Y-4.0312
X14.0938Y-1.0312
X15.4062Y-2.5312
X11.8438Y-1.0312
X5.2812Y-2.5312
X11.2812Y-4.0312
X7.1562Y-3.2812
X12.5938Y-1.7812
X5.8438Y-1.0312
X2.8438Y-3.2812
X2.8438Y-2.5312
X8.0938Y-1.0312
X9.5938Y-1.0312
X7.0625Y-4.7812
X13.1562Y-4.7812
X16.3438Y-2.5312
X15.2188Y-1.7812
X11.0938Y-1.7812
X6.7812Y-4.0312
X13.3438Y-1.7812
X6.125Y-4.7812
X5.0938Y-1.7812
X2.0938Y-4.0312
X5.094Y-4.3563
X6.031Y-4.3563
X3.5938Y-3.2812
X7.7188Y-2.5312
X8.0938Y-1.7812
X10.3438Y-1.0312
X13.7188Y-2.5312
X14.4688Y-2.5312
X14.8438Y-4.7812
X11.8438Y-1.7812
X5.375Y-3.2812
X11.4688Y-2.5312
X7.3438Y-1.7812
X2.4688Y-4.7812
X5.1875Y-4.7812
X2.8438Y-4.0312
X2.0002Y-5.1063
X2.9373Y-5.1063
X2.0938Y-1.7812
X7.9062Y-3.2812
X8.8438Y-1.7812
X14.0Y-4.7812
X15.5938Y-4.7812
X13.9062Y-3.2812
X16.3438Y-3.2812
X15.125Y-3.2812
X16.3438Y-1.7812
X12.0312Y-4.0312
X6.5938Y-1.7812
X10.7188Y-2.5312
X7.5312Y-4.0312
X3.5938Y-4.7812
X3.5938Y-1.7812
X14.6565Y-3.6062
X15.5935Y-3.6062
X2.8438Y-1.7812
X2.8438Y-1.0312
X9.9688Y-2.5312
X8.4688Y-2.5312
X13.1562Y-3.2812
X14.0938Y-1.7812
X12.9688Y-2.5312
X15.5938Y-4.0312
X10.1562Y-3.2812
X13.3438Y-1.0312
X6.2188Y-2.5312
X12.5938Y-1.0312
X7.3438Y-1.0312
X5.0938Y-1.0312
X3.5938Y-1.0312
X4.3438Y-4.0312
X14.7502Y-2.1062
X15.6873Y-2.1062
X3.5938Y-2.5312
X9.5938Y-1.7812
X10.3438Y-1.7812
X12.7812Y-4.0312
X14.8438Y-1.0312
X15.5938Y-1.0312
X12.2188Y-2.5312
X10.5312Y-4.0312
X11.6562Y-3.2812
X5.5625Y-4.0312
X9.4062Y-3.2812
X6.4062Y-3.2812
X2.0938Y-2.5312
X4.3438Y-2.5312
X7.9062Y-5.1063
X11.6562Y-5.1063
X3.5938Y-4.0312
X10.1562Y-4.7812
X9.0312Y-4.0312
X9.2188Y-2.5312
X13.5312Y-4.0312
X16.3438Y-4.7812
X14.5625Y-4.0312
X16.3438Y-1.0312
X12.4062Y-3.2812
X9.7812Y-4.0312
X5.8438Y-1.7812
X10.9062Y-3.2812
X6.9688Y-2.5312
T0
M30
